<?xml version="1.0" encoding="utf-8"?>
<!-- Uploaded to: SVG Repo, www.svgrepo.com, Generator: SVG Repo Mixer Tools -->
<svg width="800px" height="800px" viewBox="-7.39 0 332.275 332.275" xmlns="http://www.w3.org/2000/svg"><defs><style>.a{fill:#ffffff;}.b{fill:#7a7473;}.c{fill:#211715;}.d{fill:#6dbf6b;}.e{fill:#f4b3b3;}.f{fill:#79c6e0;}</style></defs><path class="a" d="M73.422,262.343c49.789-.064,111.7-.115,145.292-.135,1.119-15.994,2.328-26.857,3.416-39.845,11.025,3.385,19.422,6.293,30.434,9.675,7.351,2.258,15.8,3.99,23.425-.136,5.092-2.755,7.905-7.462,9.238-13.1s1.348-10.614,1.019-16.394c-.249-4.363-1.115-11.092-1.576-15.437-1.371-12.934-3.364-23.512-4.62-32.449-7.01.063-23.015.911-30.6,1.47.8,7.747,1.4,19.845,1.446,32.833l-6.516-7.9a212.748,212.748,0,0,0-10.592-24.026,16.777,16.777,0,0,0-3.194-4.009,15.121,15.121,0,0,0-5.512-3.493c-10.071-3.716-20.112-3.616-28.926-9.744,0,0-3.871,0-7.106,0a30.454,30.454,0,0,0-5.148-6.334,66.34,66.34,0,0,1-19.144,13.343c-.4.179-.839.4-.966.815a1.535,1.535,0,0,0,.221,1.081,2.2,2.2,0,0,0,.135.23c-.439,4.347-3.664,13.985-6,19.254-1.8-4.772-4.386-13.213-5.06-18.819a1.251,1.251,0,0,0,.118-.857c-.128-.416-.57-.636-.966-.816a66.34,66.34,0,0,1-19.145-13.342,32.757,32.757,0,0,0-6.671,9.014l-11.765,1.614q-14.1,5.364-27.74,11.876c-4.469,2.133-9.041,4.471-12.164,8.367A35.561,35.561,0,0,0,70.49,172.7l-9.518,20.843c-4.692,9.364-7.389,17.673-11.7,27.217L47.881,262.38C55.841,262.367,64.434,262.355,73.422,262.343Z"/><path class="a" d="M112.86,71.076c.443-8.365,7.221-33.412,44.72-33.412,44.824,0,43.323,36.022,43.323,36.022a6.563,6.563,0,0,1,5.251-1.536,6.2,6.2,0,0,1,4.455,2.962,8.754,8.754,0,0,1,.917,3.524,26.25,26.25,0,0,1-2.677,13.916,16.679,16.679,0,0,1-4.314,5.662,11.057,11.057,0,0,1-5.145,2.319l-.88.137c-.422,1.579-.9,2.91-1.13,3.617-1.391,3.778-8.727,16.193-18.223,22.05a83.415,83.415,0,0,0,.582,8.593,115.915,115.915,0,0,0,5.748,10.277c2.88,4.481-1.532,22.692-27.738,22.692s-36.8-17.56-30.458-22.805c5.9-4.878,7.085-10.453,7.085-10.506.292-2.722.483-5.713.549-8.132a40.368,40.368,0,0,1-10.388-9.057,44.625,44.625,0,0,1-8.509-16.61c-1.043-.158-1.677-.256-1.677-.256a11.053,11.053,0,0,1-5.144-2.319,16.7,16.7,0,0,1-4.315-5.662,26.257,26.257,0,0,1-2.676-13.916,8.738,8.738,0,0,1,.917-3.524,6.2,6.2,0,0,1,4.455-2.962,6.561,6.561,0,0,1,5.25,1.536A24.192,24.192,0,0,1,112.86,71.076Z"/><path class="b" d="M144.872,2.894c-9.811,1.119-19.907,4.65-28.091,12.886l3.917,3.343c-6.676,4.125-11.918,12.116-14.327,19.19-2.835,8.323-3.681,20.167-.316,34.161l.025.1a6.138,6.138,0,0,1,1.508-.426,6.561,6.561,0,0,1,5.25,1.536l5.627-3.351.463-.275c11.9-11.134,18.531-15.744,29.195-24.121.065.742,2.443,6.686,3,6.912.685.279,7.559-3.97,13.153-7.427l9.442,1.148a28.041,28.041,0,0,1,12.072,6.459c6.5,5.59,11.721,13.685,14.907,20.886a6.425,6.425,0,0,1,5.458-1.767,6.275,6.275,0,0,1,1.144.284c3.262-8.381,3.74-20.522-.38-32.041-2.9-8.1-9.8-16.569-15.249-18.951L185.24,16.86c-6.309-8.643-16.825-13.942-30.286-14.354A70.138,70.138,0,0,0,144.872,2.894Z"/><path class="c" d="M202.6,75.383a4.078,4.078,0,0,1,5.753.637,7.322,7.322,0,0,1,.853,3.954,22.906,22.906,0,0,1-.331,4.92c-1.023,5.567-3.931,12.237-10.123,13.325a2.42,2.42,0,0,0-1.676,2.952,2.454,2.454,0,0,0,2.952,1.676c8.855-1.555,13.1-11.532,13.872-19.528.392-4.057.236-8.988-3.235-11.721a9,9,0,0,0-11.459.391,2.42,2.42,0,0,0,0,3.394,2.45,2.45,0,0,0,3.394,0Z"/><path class="c" d="M196.923,95.648a21.981,21.981,0,0,1-1.045,5.5c-.2.673-.423,1.341-.646,2.007-.077.23-.533,1.34-.217.643a45.092,45.092,0,0,1-2.9,5.3,51.936,51.936,0,0,1-11.537,13.332,21.914,21.914,0,0,1-8.534,4.326c-3.008.7-1.735,5.325,1.276,4.628,6.6-1.529,12.145-6.246,16.515-11.226a56.866,56.866,0,0,0,9.2-13.666,29.444,29.444,0,0,0,2.686-10.847c.11-3.089-4.69-3.085-4.8,0Z"/><path class="c" d="M114.535,71.989a9,9,0,0,0-11.215-.579c-3.672,2.731-3.884,7.713-3.478,11.909.773,8,5.016,17.973,13.871,19.528a2.47,2.47,0,0,0,2.953-1.676,2.42,2.42,0,0,0-1.677-2.952c-6.192-1.088-9.1-7.758-10.123-13.325a22.882,22.882,0,0,1-.336-4.7,7.928,7.928,0,0,1,.767-4.025,4.049,4.049,0,0,1,5.844-.789,2.464,2.464,0,0,0,3.394,0,2.42,2.42,0,0,0,0-3.394Z"/><path class="c" d="M112.3,95.131c2.413,13.892,9.977,27.513,22.861,34.2a31.33,31.33,0,0,0,11.269,3.358,2.415,2.415,0,0,0,2.4-2.4,2.455,2.455,0,0,0-2.4-2.4c-8.192-.859-15.065-6.025-20.2-12.185-5.172-6.207-7.937-13.975-9.3-21.847a2.422,2.422,0,0,0-2.953-1.677,2.456,2.456,0,0,0-1.676,2.953Z"/><path class="c" d="M190.458,23.514a20.674,20.674,0,0,1,6.556,5.162,40.114,40.114,0,0,1,5.887,8.512,44.812,44.812,0,0,1,4.554,21.732,40.378,40.378,0,0,1-1.893,11.263c-.953,2.946,3.681,4.208,4.628,1.276a48.54,48.54,0,0,0-8.879-45.149,25.418,25.418,0,0,0-8.431-6.941,2.472,2.472,0,0,0-3.283.861,2.419,2.419,0,0,0,.861,3.284Z"/><path class="c" d="M123.722,15.008c-7.932,2.99-13.848,10.021-17.5,17.475A51.291,51.291,0,0,0,101.48,56.1a80.237,80.237,0,0,0,2.261,17.014c.713,3,5.343,1.732,4.628-1.276-3.566-15.018-3.4-32.314,6.972-44.734,2.606-3.122,5.8-6.011,9.657-7.466a2.467,2.467,0,0,0,1.676-2.952,2.418,2.418,0,0,0-2.952-1.676Z"/><path class="c" d="M187.313,15.649C181.243,7.425,172.1,2.413,162.071.8a60.769,60.769,0,0,0-31,2.944,46.229,46.229,0,0,0-15.989,10.34c-2.191,2.184,1.2,5.579,3.394,3.395A44.022,44.022,0,0,1,144.683,5.316c9.21-1.08,19.111-.582,27.517,3.665a30.835,30.835,0,0,1,10.968,9.09,2.473,2.473,0,0,0,3.284.861,2.417,2.417,0,0,0,.861-3.283Z"/><path class="c" d="M165.9,41.6c-4.569,2.8-9.068,5.794-13.812,8.3-.35.185-.707.353-1.06.532-.428.217.032-.02.036-.013s-.306.105-.344.108c.762-.067,2.012.016,2.252.872a2.617,2.617,0,0,0-.227-.373c-.187-.372-.383-.739-.559-1.117-.456-.977-.669-1.507-1.064-2.539a9.98,9.98,0,0,1-.682-2.072c-.282-2-2.792-2.017-4.012-1.059-4.758,3.735-9.59,7.376-14.307,11.164-5.3,4.255-10.395,8.741-15.351,13.388-2.258,2.118,1.142,5.507,3.395,3.394,4.955-4.647,10.053-9.133,15.35-13.387,4.717-3.789,9.549-7.43,14.307-11.165l-4.011-1.059a10.87,10.87,0,0,0,.773,2.3c.479,1.236.986,2.469,1.557,3.666a5.042,5.042,0,0,0,1.772,2.376c1.145.655,2.3.215,3.39-.277a64.312,64.312,0,0,0,6.621-3.736c2.812-1.7,5.6-3.444,8.4-5.162,2.629-1.614.22-5.767-2.422-4.145Z"/><path class="c" d="M173.079,48.887c6.1,1.395,11.1,5.4,15.207,9.968A62.06,62.06,0,0,1,198.3,74.409a2.419,2.419,0,0,0,3.283.861,2.456,2.456,0,0,0,.861-3.284A65.9,65.9,0,0,0,191.4,55.145c-4.572-5.006-10.329-9.35-17.04-10.887-3.007-.688-4.291,3.938-1.276,4.629Z"/><path class="c" d="M136.543,137.956c.38-3.8.673-7.6.785-11.417a2.421,2.421,0,0,0-2.4-2.4,2.447,2.447,0,0,0-2.4,2.4c-.112,3.816-.405,7.619-.785,11.417a2.408,2.408,0,0,0,2.4,2.4,2.465,2.465,0,0,0,2.4-2.4Z"/><path class="c" d="M176.756,126.53a124.533,124.533,0,0,0,.863,12.449,2.461,2.461,0,0,0,2.4,2.4c1.174-.052,2.559-1.064,2.4-2.4a124.533,124.533,0,0,1-.863-12.449,2.4,2.4,0,1,0-4.8,0Z"/><path class="c" d="M149.007,109.286a17.814,17.814,0,0,0,8.576,1.989,14,14,0,0,0,8.693-2.581,2.4,2.4,0,0,0,0-3.394,2.476,2.476,0,0,0-3.4,0c.739-.575.208-.165.018-.043q-.255.163-.524.3c-.093.049-.188.092-.281.14-.206.106-.364.039.136-.048a6.029,6.029,0,0,0-.723.262,13.2,13.2,0,0,1-2.023.462c.364-.056.053-.009-.139.01s-.4.036-.6.049c-.478.031-.958.043-1.438.04-.429,0-.858-.017-1.287-.046-.2-.014-.393-.03-.59-.049-.063-.007-.78-.125-.232-.024a17.691,17.691,0,0,1-1.889-.42c-.265-.079-.523-.174-.784-.263-.6-.2.4.2-.138-.052-.324-.153-.643-.312-.96-.48a2.4,2.4,0,1,0-2.423,4.145Z"/><path class="c" d="M156.272,89.2a39.468,39.468,0,0,1,.936,4.282l-.085-.638a2.6,2.6,0,0,1,.016.591l.085-.638a1.434,1.434,0,0,1-.065.266l.242-.574a1.044,1.044,0,0,1-.093.171l.375-.485a.962.962,0,0,1-.14.138l.486-.376a2.823,2.823,0,0,1-.339.18l.573-.242a2.485,2.485,0,0,1-.572.167l.638-.086a2.288,2.288,0,0,1-.536,0l.638.086c-.2-.028-.4-.078-.6-.105a1.823,1.823,0,0,0-.957-.043,1.794,1.794,0,0,0-.892.285,2.4,2.4,0,0,0-.861,3.284,2.3,2.3,0,0,0,1.434,1.1c.479.064.943.185,1.43.207a4.6,4.6,0,0,0,2.131-.511,3.113,3.113,0,0,0,1.716-2.051,5.069,5.069,0,0,0-.02-2.186c-.233-1.38-.552-2.747-.907-4.1a2.4,2.4,0,1,0-4.629,1.276Z"/><path class="c" d="M133.826,77.02c-.715,2.324-.249,7.67,4.154,8.125,5.819-.035,6.129-6.5,4.17-9.537C140.546,73.119,135.83,72.085,133.826,77.02Z"/><path class="c" d="M180.425,77.02c.716,2.324.25,7.67-4.153,8.125-5.819-.035-6.129-6.5-4.17-9.538C173.705,73.119,178.421,72.085,180.425,77.02Z"/><path class="a" d="M141.137,164.13c-6.147-6.11-10.174-13.51-14.715-20.9a32.757,32.757,0,0,1,6.671-9.014,66.34,66.34,0,0,0,19.145,13.342c.4.18.838.4.966.816a1.535,1.535,0,0,1-.221,1.081,61.631,61.631,0,0,1-3.96,5.113C146.329,157.863,142.946,161.9,141.137,164.13Z"/><path class="a" d="M175.857,163.241c6.148-6.109,10.175-13.51,14.716-20.9a32.761,32.761,0,0,0-6.672-9.014,66.34,66.34,0,0,1-19.144,13.343c-.4.179-.839.4-.966.815a1.535,1.535,0,0,0,.221,1.081,61.631,61.631,0,0,0,3.96,5.113C170.666,156.974,174.048,161.013,175.857,163.241Z"/><path class="c" d="M142.834,162.433c-5.928-5.948-9.985-13.314-14.34-20.416v2.423a31.568,31.568,0,0,1,6.3-8.529H131.4a68.717,68.717,0,0,0,9.788,8.117q2.514,1.73,5.176,3.229,1.293.727,2.617,1.393.649.325,1.306.635.371.174.744.344.542.32.105-.046l-.328-1.211c-.016-.208.154-.06-.053.136a4.487,4.487,0,0,0-.416.589c-.335.455-.689.9-1.04,1.338-1.165,1.463-2.353,2.907-3.542,4.35-2.1,2.551-4.227,5.084-6.313,7.648a2.472,2.472,0,0,0,0,3.394,2.418,2.418,0,0,0,3.394,0c2.438-3,4.925-5.951,7.374-8.938,1.333-1.625,2.666-3.254,3.938-4.928,1-1.312,1.9-2.807,1.251-4.514-.731-1.923-3.257-2.545-4.932-3.421-1.912-1-3.774-2.1-5.579-3.283a62.653,62.653,0,0,1-10.1-8.226,2.443,2.443,0,0,0-3.394,0,34.256,34.256,0,0,0-6.138,7.844,10.288,10.288,0,0,0-1.151,2.229c-.316,1.152.38,2.07.943,3,.849,1.395,1.688,2.795,2.535,4.189,3.46,5.7,7.13,11.311,11.855,16.052C141.624,168.018,145.019,164.624,142.834,162.433Z"/><path class="c" d="M177.555,164.938c4.725-4.741,8.394-10.356,11.855-16.051.847-1.4,1.686-2.795,2.534-4.189a4.084,4.084,0,0,0,.986-2.678,7.121,7.121,0,0,0-1.087-2.364,34.377,34.377,0,0,0-6.245-8.028,2.441,2.441,0,0,0-3.394,0,62.645,62.645,0,0,1-10.095,8.226c-1.806,1.183-3.667,2.283-5.58,3.283-1.677.878-4.2,1.494-4.932,3.421-.649,1.708.253,3.2,1.251,4.515,1.273,1.673,2.606,3.3,3.939,4.928,2.449,2.986,4.936,5.941,7.373,8.937a2.417,2.417,0,0,0,3.4,0,2.457,2.457,0,0,0,0-3.394c-2.086-2.564-4.211-5.1-6.313-7.648-1.189-1.443-2.377-2.887-3.542-4.35-.352-.442-.7-.883-1.04-1.338-.126-.171-.259-.342-.373-.522-.171-.271-.084-.363-.1-.2l-.328,1.211q-.438.366.1.046.374-.169.744-.344.561-.264,1.118-.542,1.326-.659,2.618-1.38,2.758-1.539,5.363-3.335a68.653,68.653,0,0,0,9.787-8.117H182.2a31.55,31.55,0,0,1,6.3,8.529v-2.423c-4.355,7.1-8.412,14.468-14.341,20.416C171.977,163.734,175.37,167.13,177.555,164.938Z"/><path class="a" d="M267.216,122.327c-1.917-.6-4.138-2.027-3.1-6.052.9-3.481,4.7-3.048,5.391-2.842,3.246.973,6.752,1.652,10,2.624A9.026,9.026,0,0,1,284.3,118.8a5.58,5.58,0,0,1-2.8,8.317,23.391,23.391,0,0,1,8.512,4.5,5.973,5.973,0,0,1,1.369,2.112,4.038,4.038,0,0,1,.067,2.415,15.274,15.274,0,0,1-1.618,3.74c-3.126,5.475-10.927,7.427-12.966,13.392,0,0-.275.806-.7,2.051-7.287.225-18.045.8-24.881,1.256l-.852-9.665c-2.083-1.214-3.085-3.625-4.066-5.828a71.506,71.506,0,0,0-4.42-8.383,25.538,25.538,0,0,1-3.32-6.493c-.636-2.357-.345-5.139,1.414-6.831s5.15-1.594,6.3.561L265.3,123.8Z"/><path class="c" d="M279.181,153.914c1.041-2.873,3.957-4.687,6.3-6.42,3.084-2.284,5.8-4.689,7.386-8.273.957-2.167,1.591-4.43.592-6.7a10.706,10.706,0,0,0-4.318-4.551,27.78,27.78,0,0,0-5.809-2.757,9.977,9.977,0,0,0-5.394-.861,6.491,6.491,0,0,0-5.1,5.489c-.166,2.658,1.77,4.854,3.582,6.55,2.254,2.109,5.655-1.279,3.394-3.394-.606-.568-2.33-1.9-2.188-2.895.058-.4.774-.878,1.127-1.008a1.881,1.881,0,0,1,1.3.076,20.9,20.9,0,0,1,8.1,4.013,2.473,2.473,0,0,1,.73,3.121,11.667,11.667,0,0,1-2.046,3.7c-1.692,2.011-3.959,3.433-6.028,5.012-2.721,2.077-5.072,4.341-6.262,7.627a2.422,2.422,0,0,0,1.676,2.953,2.45,2.45,0,0,0,2.952-1.677Z"/><path class="c" d="M248.413,118.733a6.52,6.52,0,0,0-9.127-1.794c-3.445,2.3-3.99,7.078-2.713,10.732,1.448,4.145,4.345,7.719,6.307,11.631,1.741,3.472,2.873,7.509,6.347,9.688,2.624,1.646,5.036-2.5,2.423-4.144-2.158-1.353-2.962-4.515-4-6.689-1.469-3.078-3.245-5.944-4.987-8.869-1.238-2.077-2.661-4.792-1.6-7.244a2.2,2.2,0,0,1,1.653-1.414c.73-.118,1.243.009,1.55.525,1.578,2.653,5.729.241,4.144-2.422Z"/><path class="c" d="M253.3,190.536A343.593,343.593,0,0,0,251.849,156l-2.4,2.4c10.17-.745,20.4-1.368,30.6-1.47l-2.314-1.762c1.153,8.165,2.6,16.286,3.665,24.465,1.1,8.471,2.287,17.069,2.576,25.613.26,7.685-.266,17.154-6.412,22.666-6.561,5.882-16.111,4.3-23.781,1.993-10.361-3.113-20.593-6.646-30.934-9.827-2.959-.91-4.224,3.722-1.276,4.629,9.6,2.951,19.11,6.166,28.7,9.14,8.973,2.782,18.983,4.9,27.577-.239,7.925-4.741,10.439-14.038,10.9-22.718.472-8.932-.974-17.966-2-26.818-1.171-10.1-2.961-20.112-4.383-30.18a2.4,2.4,0,0,0-2.314-1.762c-10.2.1-20.431.725-30.6,1.47-1.192.087-2.539,1.033-2.4,2.4a343.593,343.593,0,0,1,1.449,34.54c0,3.089,4.8,3.094,4.8,0Z"/><path class="c" d="M81.57,194.688c.951,10.265,2.879,20.475,3.016,30.8.041,3.086,4.841,3.095,4.8,0-.137-10.326-2.065-20.536-3.016-30.8a2.466,2.466,0,0,0-2.4-2.4,2.416,2.416,0,0,0-2.4,2.4Z"/><path class="c" d="M220.4,213.73c-1.128,15.566-2.833,31.084-3.96,46.65a2.421,2.421,0,0,0,2.4,2.4,2.446,2.446,0,0,0,2.4-2.4c1.127-15.566,2.832-31.084,3.96-46.65a2.4,2.4,0,0,0-4.8,0Z"/><path class="a" d="M253.849,159.578a10.632,10.632,0,0,1-.735-4c-.014-2.576-.031-5.635-.049-8.974-.07-12.2-.08-41.217-.107-46.295-.013-2.537,3.055-3.629,7.175-3.651s7.769.962,7.783,3.5l.23,43.426c.132,7.48.218,12.956.222,13.68.025,4.753-3.064,6.852-7.748,6.877A7.13,7.13,0,0,1,253.849,159.578Z"/><path class="d" d="M253.618,158.946a11.093,11.093,0,0,1-.5-3.37c-.014-2.576-.061-11.309-.079-14.648l0-.486,0,.47c.012,2.265,3.142,3.647,7.886,3.622,4.119-.022,6.643-1.089,7.229-2.853.122,7.244.215,14.884.219,15.581.025,4.753-3.064,6.852-7.748,6.877A7.174,7.174,0,0,1,253.618,158.946Z"/><path class="c" d="M265.516,100.156c.1,18.9.281,37.795.447,56.692.015,1.649-.206,2.93-1.3,3.845a5.077,5.077,0,0,1-1.841.81,9.981,9.981,0,0,1-2.9.21,4.751,4.751,0,0,1-3.823-2.958c-.979-2.305-.591-5.151-.6-7.595q-.074-13.477-.089-26.956c-.013-7.965,0-15.931-.043-23.9-.015-3.088-4.815-3.094-4.8,0,.087,16.806.037,33.612.129,50.418.017,2.992-.309,6.261.709,9.131a9.849,9.849,0,0,0,4.755,5.626c4.266,2.133,10.609,1.135,13.286-3.045a10.4,10.4,0,0,0,1.323-5.847c-.027-2.1-.064-4.2-.1-6.3-.121-7.254-.157-14.508-.195-21.764l-.15-28.372c-.017-3.088-4.817-3.094-4.8,0Z"/><path class="c" d="M260.133,94.256c-3.378.036-7.884.655-9.258,4.284a5.341,5.341,0,0,0,.372,4.442,5.946,5.946,0,0,0,3.573,2.546,18.49,18.49,0,0,0,5.137.55,25.818,25.818,0,0,0,5.41-.447,6.8,6.8,0,0,0,3.615-1.872,5.283,5.283,0,0,0,1.229-4.544c-.824-4.346-6.533-4.96-10.078-4.959a2.4,2.4,0,1,0,0,4.8c.736,0,1.471.023,2.2.093.155.015.31.031.465.05-.452-.057.033.011.146.031.35.061.7.135,1.043.227.287.077.563.191.848.269-.515-.142.076.038.248.134a2.747,2.747,0,0,0,.356.219c.268.1-.366-.383-.052-.033.024.026.214.213.21.214-.186.081-.159-.573-.041-.014.021.1.276.51-.073-.181a1.163,1.163,0,0,1,.072.28c-.126-.756-.071-.029-.056.149.025.287.18-.6.023-.2a1.226,1.226,0,0,0-.061.232c-.042.349.04-.232.117-.247-.007,0-.158.282-.165.3-.144.324.109-.231.17-.214a2.735,2.735,0,0,0-.2.208c-.345.328.488-.239-.054.022a2.414,2.414,0,0,0-.23.126c-.361.232.208-.1.195-.072-.051.11-.694.231-.8.258-.248.065-.5.118-.752.163-.121.022-.243.038-.363.06.525-.1.181-.022.059-.01-.738.074-1.475.122-2.217.143a29.064,29.064,0,0,1-4.193-.138c.591.07-.125-.031-.282-.064a7.985,7.985,0,0,1-.805-.207,2.989,2.989,0,0,0-.289-.1c.141-.1.455.245.174.072-.083-.051-.578-.25-.571-.337,0,0,.472.415.158.1s.153.088.1.171c0,.007-.234-.407-.237-.407.262,0,.162.557.115.234a1.9,1.9,0,0,0-.071-.307c-.092-.271-.015.529.039.241a1.69,1.69,0,0,0,0-.438c-.048-.338-.061.627,0,.134.017-.151.223-.645-.04.051a1.093,1.093,0,0,1,.142-.24c-.192.237-.262.32-.014.045a1.08,1.08,0,0,1,.219-.2q-.4.3-.179.145c.065-.046.132-.089.2-.13.093-.057.19-.111.287-.161.144-.075.595-.195.064-.042.644-.186,1.259-.374,1.922-.5s-.3.01.131-.018c.232-.015.463-.046.694-.062.448-.031.9-.043,1.344-.048a2.4,2.4,0,1,0,0-4.8Z"/><path class="c" d="M250.634,140.912c.157,4.986,6.256,6.019,10.153,6.022,3.784,0,9.6-.681,9.7-5.615a2.421,2.421,0,0,0-2.4-2.4,2.446,2.446,0,0,0-2.4,2.4c-.011.55-.037-.121.044-.159l-.089.332c-.119-.143.314-.553.049-.164-.222.327.435-.377.1-.116-.05.039-.261.213-.265.252.012-.113.515-.323.116-.109-.123.066-.244.138-.367.205-.443.243.084-.011.085-.029a4.224,4.224,0,0,1-.988.3c-.187.044-.376.082-.565.116-.068.013-.734.1-.187.038a25.526,25.526,0,0,1-2.832.152c-.472,0-.944-.013-1.414-.045-.242-.016-.482-.038-.723-.061-.751-.071.445.09-.27-.036-.414-.073-.826-.153-1.233-.263q-.234-.065-.465-.139c-.069-.022-.66-.216-.313-.1s-.112-.054-.183-.09c-.144-.073-.285-.15-.422-.235-.378-.234-.222-.011,0,.031-.089-.017-.236-.23-.306-.283-.315-.237.214.416.047.078a1.383,1.383,0,0,0-.184-.328c.032.015.292.585.1.167-.221-.479.029.5.015.081a2.4,2.4,0,1,0-4.8,0Z"/><path class="a" d="M279.087,115.752a7.438,7.438,0,0,0-2.1-8.029c-3.341-3.31-6.73-7.342-11.429-7.15a4.337,4.337,0,0,0-3.2,1.369,5.283,5.283,0,0,0,.285,5.707c1.148,1.634,3.234,3.538,4.68,5.212l.326.473a3.815,3.815,0,0,0-3.541,2.941c-1.038,4.025,1.183,5.451,3.1,6.052,2.328.729,2.9.837,4.953,1.468Z"/><path class="c" d="M281.4,116.391a9.523,9.523,0,0,0-1.352-8.757,24.3,24.3,0,0,0-2.348-2.6c-1.081-1.094-2.16-2.2-3.337-3.191-2.473-2.088-5.45-3.828-8.8-3.67a7,7,0,0,0-4.812,1.964,6.565,6.565,0,0,0-1.461,4.886c.374,4.118,3.809,6.632,6.345,9.535a2.422,2.422,0,0,0,3.394,0,2.447,2.447,0,0,0,0-3.394c-.911-1.043-1.893-2.02-2.838-3.031-.43-.459-.848-.927-1.251-1.41,0,0-.248-.32-.118-.146.144.2-.141-.2-.165-.241-.068-.1-.133-.2-.194-.311-.029-.052-.271-.577-.194-.38s-.049-.18-.048-.176c-.038-.159-.083-.319-.123-.477-.018-.072-.048-.459-.021-.091-.009-.122-.014-.244-.016-.366s.094-.84.009-.44c.033-.155.076-.3.116-.459s.135-.3.02-.079c.07-.137.166-.266.233-.4.007-.014-.3.439-.135.21.148-.2-.337.115-.05.04a1.4,1.4,0,0,0,.272-.161c.365-.222.18-.085.071-.044.161-.061.328-.1.493-.151a1.786,1.786,0,0,1,.723-.082,7.457,7.457,0,0,1,.858.041c.289.031,0,.006-.043,0,.156.03.312.06.466.1.269.065.534.144.8.235.112.039.223.079.333.122-.351-.137.125.063.189.094a12.542,12.542,0,0,1,1.461.853,9.065,9.065,0,0,1,1.194.914,45.857,45.857,0,0,1,4.778,4.686c.064.074.121.157.191.226.2.2-.33-.483-.032-.041.132.2.268.385.391.586.132.217.243.444.364.666.019.036.151.338.042.078-.128-.3.077.23.1.289.089.275.152.554.215.835.1.464.013.139.007.036.01.157.021.313.024.47s-.008.325-.011.488c-.006.386.019.021-.025.256a8.84,8.84,0,0,1-.335,1.22,2.4,2.4,0,0,0,4.629,1.277Z"/><path class="c" d="M283.608,128.782a8.106,8.106,0,0,0,3.608-9.5c-1.434-4.3-6.386-5.431-10.266-6.408-2.277-.573-4.55-1.233-6.835-1.765a8.166,8.166,0,0,0-3.6-.015c-4.006.878-6.036,5.569-4.7,9.318,1.442,4.064,6.124,4.6,9.719,5.695,2.961.906,4.227-3.726,1.277-4.628-1.319-.4-2.65-.766-3.969-1.165-.356-.108-.714-.212-1.067-.33-.111-.037-.221-.08-.332-.116-.319-.1.375.194.075.033-.189-.1-.379-.2-.566-.306a3.035,3.035,0,0,1-.309-.208c.431.323.053.033-.012-.058-.332-.466.092.221-.21-.3-.178-.306.1.353-.014,0-.034-.106-.067-.211-.1-.318-.118-.422-.05-.19-.034-.068a3.979,3.979,0,0,1-.021-.524,4.038,4.038,0,0,1,.138-1.042c.029-.119.314-.843.16-.548a3.078,3.078,0,0,1,.238-.392c-.252.344,0,.051.037-.006.053-.087.369-.274-.018-.012a3.114,3.114,0,0,0,.333-.2c.03-.028.342-.166.059-.041-.312.136.171-.052.241-.069.233-.057.789-.118.232-.08.215-.015.428-.033.644-.032.164,0,.327.019.49.021.508.007-.521-.178-.067,0a41.6,41.6,0,0,0,4.948,1.3c1.885.461,3.778.909,5.629,1.494a6.383,6.383,0,0,1,3.286,1.984c-.588-.694.154.411-.022.031-.119-.258.121.417.16.571.032.124.053.255.075.381-.059-.343-.018-.185-.015.068a7.381,7.381,0,0,1-.029.952c.057-.487-.087.29-.132.439a4.106,4.106,0,0,1-.147.425c.163-.381-.067.082-.107.149a3.4,3.4,0,0,1-1.2,1.128c-2.672,1.548-.258,5.7,2.423,4.145Z"/><path class="c" d="M194.943,141.733c7.508,5.136,16.486,6.163,25.037,8.556a27.833,27.833,0,0,1,6.139,2.219,15.725,15.725,0,0,1,4.608,4.069,30.913,30.913,0,0,1,3,5.509q1.427,2.91,2.758,5.865c2.021,4.472,3.9,9.009,5.583,13.62a2.463,2.463,0,0,0,2.952,1.676,2.42,2.42,0,0,0,1.677-2.952c-1.572-4.309-3.319-8.554-5.168-12.75a122.938,122.938,0,0,0-5.874-12.224,19.877,19.877,0,0,0-10.784-8.536c-4.389-1.532-8.957-2.418-13.465-3.511-4.982-1.207-9.772-2.768-14.037-5.685-2.556-1.749-4.96,2.409-2.423,4.144Z"/><path class="a" d="M207.217,288.175a6.531,6.531,0,0,0-2.769-5.155,14.367,14.367,0,0,0-5.469-2.181c-5.345-1.212-10.808-1.18-16.335-1.18s-10.991-.032-16.335,1.18a14.36,14.36,0,0,0-5.469,2.181,6.332,6.332,0,0,0-2.5,5.155h0c0,3.2,0,6.63,0,9.357.609,2.981,4.04,4.652,7.078,5.453,5.6,1.477,11.519,1.645,17.223,1.645,5.814,0,11.626-.168,17.225-1.645,3.205-.845,6.848-2.658,7.157-5.958l.192-2.047v-6.805Z"/><path class="c" d="M2.318,265.285c7.874,0,15.748-.074,23.623-.075,3.088,0,3.093-4.8,0-4.8-7.875,0-15.749.073-23.623.075-3.088,0-3.093,4.8,0,4.8Z"/><path class="a" d="M124.465,329.875c-27.931.007-84.022-.277-112.652-.271.01-9.644.514-47.822.514-55.955,4.93-5.84,16.086-18.47,18.747-21.435h9.8c0,1.794-.028,4.522-.061,8.23h.061l78.049,0c1.025-3,2.086-5.96,3.289-9h11.281c0,2.275.717,37.49.746,42.844-1.652,7.468-5.276,22.465-9.333,35.581Z"/><path class="e" d="M81.574,290.427c0,3.873,0,7.42,0,10.409,0,6.752,4.27,9.978,8.653,9.978,5.435,0,9.03-2.416,9.03-7.929,0-.714-.048-5.409-.128-12.128"/><path class="c" d="M121.329,276.526q.006,6.618,0,13.236a2.4,2.4,0,0,0,4.8,0q0-6.618,0-13.236a2.4,2.4,0,0,0-4.8,0Z"/><path class="c" d="M20.387,273.985c-.017,2.97.012,5.94.033,8.91a2.437,2.437,0,0,0,2.4,2.4c24.026,0,48.05.173,72.075.245q9.833.03,19.665.031a2.434,2.434,0,0,0,2.4-2.4q-.021-4-.026-8a11.029,11.029,0,0,1,.829-3.621q.693-2.088,1.378-4.178c1.689-5.132,3.4-10.255,5.384-15.283l-2.314,1.762h11.281l-2.4-2.4c.011,7.952.281,15.91.429,23.86q.135,7.228.257,14.457c.022,1.39-.035,2.805.057,4.193.013.191-.077.513.035-.063-.058.3-.131.589-.2.883q-.236,1.043-.475,2.085-.562,2.436-1.149,4.867c-2.228,9.234-4.658,18.427-7.459,27.5l2.315-1.762q-21.208.007-42.416-.089-24.093-.077-48.185-.15-11.246-.027-22.491-.032l2.4,2.4c.019-15.584.3-31.169.45-46.752.029-3.067.063-6.135.064-9.2l-.7,1.7c6.124-7.249,12.411-14.372,18.747-21.436,2.057-2.294-1.326-5.7-3.394-3.394-3.95,4.4-7.847,8.855-11.738,13.311-2.146,2.459-4.288,4.92-6.4,7.407a4.116,4.116,0,0,0-1.311,2.522c-.017.348,0,.7,0,1.05q0,1.334-.015,2.668c-.086,12.018-.245,24.035-.368,36.053-.055,5.358-.121,10.717-.128,16.076a2.435,2.435,0,0,0,2.4,2.4q21.567,0,43.133.092,23.993.077,47.985.149,10.987.027,21.974.03a2.458,2.458,0,0,0,2.314-1.762c2.544-8.246,4.776-16.589,6.839-24.968q1.182-4.8,2.273-9.619a19.359,19.359,0,0,0,.27-4.669c-.147-9.881-.353-19.762-.536-29.643-.063-3.386-.168-6.776-.173-10.164a2.435,2.435,0,0,0-2.4-2.4H122.211a2.486,2.486,0,0,0-2.314,1.762c-2.038,5.169-3.791,10.439-5.527,15.715-.869,2.643-2.239,5.458-2.236,8.253s.012,5.594.026,8.391l2.4-2.4c-23.988.007-47.975-.164-71.963-.24q-9.888-.031-19.777-.036l2.4,2.4c-.021-2.97-.05-5.94-.033-8.91.018-3.089-4.782-3.093-4.8,0Z"/><path class="c" d="M99.3,263.041q8.9.036,17.807.061c3.089.008,3.094-4.792,0-4.8q-8.9-.023-17.807-.061c-3.089-.013-3.093,4.787,0,4.8Z"/><path class="c" d="M68.247,262.907q6.413.026,12.824.054a2.4,2.4,0,1,0,0-4.8q-6.411-.029-12.824-.054a2.4,2.4,0,0,0,0,4.8Z"/><path class="f" d="M50.736,290.427c0,3.873,0,7.42,0,10.409,0,6.752,4.27,9.978,8.654,9.978,5.434,0,9.029-2.416,9.029-7.929,0-.714-.047-5.409-.128-12.128"/><path class="c" d="M79.174,290.427q0,3.82,0,7.642a26.493,26.493,0,0,0,.491,6.765,11.113,11.113,0,0,0,7.133,7.837,13.1,13.1,0,0,0,10.581-1.236c3.045-1.97,4.282-5.277,4.277-8.8-.006-3.96-.08-7.922-.127-11.881-.037-3.087-4.837-3.1-4.8,0q.063,5.318.117,10.635A23.88,23.88,0,0,1,96.806,304c.028-.278-.089.486-.124.629s-.08.314-.127.468c.015-.046-.242.679-.117.372s-.181.36-.164.329c-.07.129-.143.257-.221.381s-.157.245-.243.361c.287-.389-.14.135-.175.172-.1.108-.673.6-.319.331a6.366,6.366,0,0,1-.831.527c-.131.071-.265.138-.4.2-.382.183.523-.173-.169.065a11.257,11.257,0,0,1-1.153.335,6.857,6.857,0,0,1-1.691.222c-.39.019-.781.028-1.171.013-.182-.006-.364-.021-.546-.036.353.029.083.017-.118-.024a9.541,9.541,0,0,1-.953-.237c-.147-.046-.85-.341-.448-.152a8.43,8.43,0,0,1-.872-.473c-.158-.1-.313-.2-.463-.311.272.2-.02-.019-.13-.12a6.273,6.273,0,0,1-1.962-3.093,20.161,20.161,0,0,1-.433-5.892q0-3.821,0-7.642c0-3.089-4.8-3.094-4.8,0Z"/><path class="c" d="M48.336,290.427q0,3.82,0,7.642a26.538,26.538,0,0,0,.491,6.765,11.113,11.113,0,0,0,7.134,7.837,13.1,13.1,0,0,0,10.581-1.236c3.045-1.97,4.281-5.277,4.276-8.8-.005-3.96-.079-7.922-.127-11.881-.036-3.087-4.837-3.1-4.8,0q.065,5.318.117,10.635A23.88,23.88,0,0,1,65.968,304c.028-.278-.09.486-.124.629s-.08.314-.127.468c.014-.046-.242.679-.118.372s-.18.36-.164.329c-.069.129-.143.257-.221.381s-.157.245-.242.361c.287-.389-.14.135-.175.172-.105.108-.673.6-.32.331a6.356,6.356,0,0,1-.83.527q-.2.107-.4.2c-.383.183.522-.173-.169.065a11.275,11.275,0,0,1-1.154.335,6.85,6.85,0,0,1-1.691.222c-.389.019-.781.028-1.17.013-.183-.006-.364-.021-.546-.036.352.029.082.017-.118-.024a9.407,9.407,0,0,1-.953-.237c-.147-.046-.85-.341-.448-.152a8.55,8.55,0,0,1-.873-.473c-.158-.1-.313-.2-.463-.311.272.2-.02-.019-.129-.12a6.266,6.266,0,0,1-1.962-3.093,20.127,20.127,0,0,1-.434-5.892q0-3.821,0-7.642c0-3.089-4.8-3.094-4.8,0Z"/><path class="c" d="M182.644,277.259a97.348,97.348,0,0,0-13.291.614c-3.907.537-8.552,1.355-11.309,4.459a7.511,7.511,0,0,0-.3,10.142c2.353,2.714,6.164,3.784,9.554,4.448a72.694,72.694,0,0,0,13.255,1.146,100.961,100.961,0,0,0,13.414-.523c3.787-.467,7.913-1.074,11.219-3.126,3.122-1.939,5.165-5.447,3.838-9.137-1.677-4.662-6.616-6.289-11.062-7.093a85.761,85.761,0,0,0-15.318-.93c-3.089,0-3.094,4.8,0,4.8a106.985,106.985,0,0,1,11.59.4c2.877.313,6.813.728,9.091,2.731,1.79,1.574,1.606,3.584-.279,4.9-2.411,1.685-5.685,2.173-8.527,2.579a79.5,79.5,0,0,1-10.907.605,107.655,107.655,0,0,1-10.792-.369c-2.528-.244-14.924-1.629-11.676-6.767,1.747-2.763,6.394-3.241,9.309-3.611a96.519,96.519,0,0,1,12.191-.47C185.732,282.059,185.737,277.259,182.644,277.259Z"/><path class="c" d="M155.944,288.175q0,4.176,0,8.353a7.374,7.374,0,0,0,3.03,6.034c4.039,3.171,9.843,3.776,14.784,4.181a111.394,111.394,0,0,0,17.339.037c4.922-.371,10.818-.92,14.913-3.98a8.144,8.144,0,0,0,3.43-5.92,80.735,80.735,0,0,0,.178-8.7c0-3.089-4.8-3.094-4.8,0,0,2.4.134,4.851-.041,7.246-.1,1.316-.154,2.263-1.178,3.188a10.47,10.47,0,0,1-4.368,2.062,42.43,42.43,0,0,1-7.175,1.23,116.593,116.593,0,0,1-15.012.237c-4.361-.173-9.331-.419-13.356-2.282a7.03,7.03,0,0,1-2.293-1.538,2.455,2.455,0,0,1-.651-2q0-4.072,0-8.147c0-3.089-4.8-3.094-4.8,0Z"/><path class="c" d="M24.809,324.1c3.089,0,3.094-4.8,0-4.8s-3.093,4.8,0,4.8Z"/><path class="c" d="M11.813,324.1c3.089,0,3.094-4.8,0-4.8s-3.094,4.8,0,4.8Z"/><path class="c" d="M31.074,254.614h9.8l-2.4-2.4c0,2.743-.037,5.487-.061,8.23a2.433,2.433,0,0,0,2.4,2.4q4.887,0,9.774.01c3.088.006,3.093-4.794,0-4.8q-4.887-.009-9.774-.01l2.4,2.4c.024-2.743.059-5.487.061-8.23a2.434,2.434,0,0,0-2.4-2.4h-9.8c-3.089,0-3.094,4.8,0,4.8Z"/><path class="c" d="M20.476,290.265c.076,10.474.251,20.972-.112,31.443a2.43,2.43,0,0,0,2.4,2.4c24.112-.006,48.223.16,72.335.234q9.8.03,19.6.034a2.433,2.433,0,0,0,2.4-2.4c0-10.516-.063-21.033-.11-31.55a2.436,2.436,0,0,0-2.4-2.4c-23.94.008-47.879-.163-71.819-.24q-9.945-.031-19.889-.036a2.433,2.433,0,0,0-2.4,2.4v.115c.023,3.087,4.823,3.1,4.8,0v-.115l-2.4,2.4c23.982,0,47.964.173,71.946.246q9.881.03,19.762.03l-2.4-2.4c.047,10.517.109,21.034.11,31.55l2.4-2.4c-24.107,0-48.214-.167-72.321-.238q-9.8-.029-19.609-.03l2.4,2.4c.363-10.471.188-20.969.112-31.443C25.254,287.178,20.454,287.171,20.476,290.265Z"/><path class="c" d="M150.215,264.8q15.412-.033,30.824-.056,17.883-.029,35.765-.049,18.3-.024,36.6-.042,16.663-.018,33.325-.032l25.946-.02h2.508c3.089,0,3.094-4.8,0-4.8l-24.741.018-32.631.03q-18.207.02-36.414.041-18.045.021-36.092.049-15.831.022-31.662.055l-3.425.007c-3.089.006-3.094,4.806,0,4.8Z"/><path class="c" d="M134.582,264.843q7.817-.024,15.633-.039a2.4,2.4,0,1,0,0-4.8q-7.817.016-15.633.039a2.4,2.4,0,0,0,0,4.8Z"/><path class="c" d="M114.019,142.528q-10.362,3.95-20.485,8.492c-5.917,2.656-12.262,5.16-17.349,9.271C70.827,164.62,68.5,171.3,65.728,177.378c-3.132,6.859-6.4,13.664-9.471,20.547-3.185,7.139-5.851,14.495-9.061,21.622a2.474,2.474,0,0,0,.861,3.284,2.417,2.417,0,0,0,3.283-.861c2.8-6.222,5.191-12.613,7.869-18.887,2.828-6.624,6.016-13.1,9.008-19.657q2.264-4.957,4.527-9.914c1.287-2.806,2.612-5.683,4.768-7.94,4.2-4.4,10.4-6.734,15.826-9.22q10.824-4.961,21.957-9.195a2.469,2.469,0,0,0,1.677-2.953,2.419,2.419,0,0,0-2.953-1.676Z"/><path class="c" d="M283.089,92.616a43.576,43.576,0,0,1,5.7-1.379,2.419,2.419,0,0,0,1.434-1.1,2.4,2.4,0,0,0-.861-3.284,2.688,2.688,0,0,0-1.849-.242,43.9,43.9,0,0,0-5.7,1.379,2.539,2.539,0,0,0-1.434,1.1,2.4,2.4,0,0,0,.861,3.284,2.414,2.414,0,0,0,1.849.242Z"/><path class="c" d="M280.164,84.853c.692-.828,1.459-1.594,2.218-2.358.841-.846,1.695-1.679,2.542-2.518a2.473,2.473,0,0,0,.7-1.7,2.439,2.439,0,0,0-.7-1.7,2.412,2.412,0,0,0-1.7-.7,2.51,2.51,0,0,0-1.7.7c-.847.839-1.7,1.672-2.542,2.518-.76.764-1.527,1.53-2.218,2.357a2.573,2.573,0,0,0-.7,1.7,2.447,2.447,0,0,0,.7,1.7,2.421,2.421,0,0,0,1.7.7,2.356,2.356,0,0,0,1.7-.7Z"/><path class="c" d="M273.781,79.97c.013-1.887.292-3.763.321-5.649a2.4,2.4,0,0,0-4.8,0c-.029,1.886-.308,3.762-.321,5.649a2.462,2.462,0,0,0,.7,1.7,2.4,2.4,0,0,0,4.1-1.7Z"/><path class="a" d="M68.247,236.644v34.887c-1.061,1.709-3.307,2.3-5.331,2.571a19.558,19.558,0,0,1-6.31-.019,9.515,9.515,0,0,1-5.7-3.231c-.006-14.147-.013-28.234-.013-34.124"/><path class="a" d="M99.085,236.644v34.887c-1.061,1.709-3.307,2.3-5.33,2.571a19.565,19.565,0,0,1-6.311-.019,9.515,9.515,0,0,1-5.7-3.231c-.006-14.147-.013-28.234-.013-34.124"/><path class="c" d="M65.847,236.644v34.887l.327-1.211c-1.168,1.7-4.872,1.631-6.647,1.629-2.652,0-5.176-.7-6.92-2.794l.7,1.7q-.008-17.062-.013-34.124c0-3.089-4.8-3.094-4.8,0q0,8.511.005,17.023,0,5.814,0,11.629l0,2.978a12.413,12.413,0,0,0,.087,3.132c.463,1.684,2.7,3.112,4.176,3.815,3.4,1.618,7.124,1.632,10.782,1.111a11.73,11.73,0,0,0,4.4-1.385,7,7,0,0,0,1.791-1.513,3.989,3.989,0,0,0,.9-2.884v-33.99c0-3.088-4.8-3.093-4.8,0Z"/><path class="c" d="M96.685,236.644v34.887l.328-1.211c-1.169,1.7-4.872,1.631-6.648,1.629-2.652,0-5.175-.7-6.92-2.794l.7,1.7q-.007-17.062-.013-34.124c0-3.089-4.8-3.094-4.8,0q0,8.511.006,17.023,0,5.814.005,11.629v2.978a12.507,12.507,0,0,0,.087,3.132c.464,1.684,2.7,3.112,4.176,3.815,3.4,1.618,7.124,1.632,10.783,1.111a11.725,11.725,0,0,0,4.4-1.385,7,7,0,0,0,1.791-1.513,3.984,3.984,0,0,0,.9-2.884v-33.99c0-3.088-4.8-3.093-4.8,0Z"/><path class="a" d="M59.241,232.536c-4.778,0-8.344,1.249-8.344,4.192,0,3.041,2.891,3.954,8.394,3.954,5.968,0,8.956-.856,8.956-4.038C68.247,233.7,64.022,232.536,59.241,232.536Z"/><path class="a" d="M90.08,232.536c-4.779,0-8.345,1.249-8.345,4.192,0,3.041,2.891,3.954,8.395,3.954,5.968,0,8.955-.856,8.955-4.038C99.085,233.7,94.861,232.536,90.08,232.536Z"/><path class="c" d="M59.241,230.136c-3.54.019-8.5.547-10.2,4.221a5.847,5.847,0,0,0,.2,5.281,6.5,6.5,0,0,0,3.906,2.79,21.038,21.038,0,0,0,5.853.653,29.58,29.58,0,0,0,6.176-.476,7.509,7.509,0,0,0,4.031-2.057,5.735,5.735,0,0,0,1.34-4.893c-.883-4.849-7.383-5.5-11.3-5.519a2.4,2.4,0,1,0,0,4.8,15.966,15.966,0,0,1,4.574.507c.333.091.659.2.982.318-.415-.156.244.124.377.2s.275.168.411.256c.291.189-.349-.391.016.024.073.083.164.174.243.25-.253-.245-.185-.166.009.064.07.083.328.351-.049-.118-.007-.009.076.324.082.326-.166-.049.01-.533-.04-.038a1.633,1.633,0,0,0-.016.312c.029.287.185-.553.01-.13a1.391,1.391,0,0,0-.072.27c-.05.445.053-.26.095-.2.021.032-.18.314-.193.345-.174.392.117-.228.136-.171.011.032-.2.209-.236.239-.17.152-.361.168.1-.073-.087.045-.158.114-.247.156-.238.112-.611.266-.135.1-.307.109-.61.213-.927.294-.289.074-.58.134-.874.185-.14.025-.281.047-.422.067.449-.064.053-.009-.033,0-.857.078-1.712.132-2.572.151-.823.019-1.647.019-2.47-.007q-.6-.018-1.193-.059c-.166-.012-.331-.025-.5-.041-.03,0-.8-.095-.29-.023a10.461,10.461,0,0,1-1.775-.394c-.111-.036-.223-.087-.335-.118.489.136.245.126.112.043-.218-.135-.444-.253-.66-.394.5.324.24.181.107.05-.16-.157-.209-.366.062.119-.085-.152-.175-.329-.272-.473.456.676.144.238.1.178-.019-.024-.155-.565-.048-.113.085.365,0,.048,0-.066a4.107,4.107,0,0,0,0-.508c-.044-.323-.13.554.012.054.127-.447-.277.384-.005-.031.056-.084.121-.191.167-.278-.158.3-.188.221.047-.022.079-.083.174-.15.254-.231-.372.378-.045.05.1-.04.166-.1.951-.426.5-.269a12.884,12.884,0,0,1,4.852-.71,2.4,2.4,0,0,0,0-4.8Z"/><path class="c" d="M90.08,230.136c-3.54.019-8.5.547-10.206,4.221a5.847,5.847,0,0,0,.2,5.281,6.5,6.5,0,0,0,3.905,2.79,21.041,21.041,0,0,0,5.854.653,29.571,29.571,0,0,0,6.175-.476,7.505,7.505,0,0,0,4.031-2.057,5.732,5.732,0,0,0,1.341-4.893c-.883-4.849-7.384-5.5-11.3-5.519a2.4,2.4,0,1,0,0,4.8,15.974,15.974,0,0,1,4.574.507q.5.136.981.318c-.414-.156.244.124.377.2s.276.168.412.256c.29.189-.35-.391.015.024.074.083.165.174.243.25-.252-.245-.184-.166.009.064.071.083.328.351-.048-.118-.007-.009.075.324.081.326-.165-.049.01-.533-.04-.038a1.632,1.632,0,0,0-.015.312c.028.287.184-.553.009-.13a1.55,1.55,0,0,0-.072.27c-.05.445.054-.26.095-.2.021.032-.179.314-.193.345-.173.392.118-.228.136-.171.011.032-.2.209-.235.239-.171.152-.361.168.1-.073-.086.045-.158.114-.247.156-.237.112-.61.266-.134.1-.308.109-.611.213-.928.294-.288.074-.58.134-.873.185-.14.025-.281.047-.422.067.449-.064.053-.009-.034,0-.856.078-1.711.132-2.572.151-.823.019-1.647.019-2.47-.007q-.6-.018-1.193-.059c-.165-.012-.331-.025-.5-.041-.03,0-.8-.095-.29-.023a10.45,10.45,0,0,1-1.774-.394c-.112-.036-.223-.087-.335-.118.488.136.245.126.111.043-.217-.135-.444-.253-.66-.394.5.324.24.181.107.05-.159-.157-.209-.366.063.119-.085-.152-.175-.329-.272-.473.455.676.143.238.1.178-.019-.024-.154-.565-.048-.113.086.365,0,.048,0-.066a3.92,3.92,0,0,0,0-.508c-.044-.323-.129.554.012.054.127-.447-.276.384,0-.031.055-.084.121-.191.166-.278-.158.3-.188.221.047-.022.08-.083.175-.15.255-.231-.372.378-.046.05.1-.04.166-.1.951-.426.5-.269a12.884,12.884,0,0,1,4.852-.71,2.4,2.4,0,0,0,0-4.8Z"/><path class="a" d="M136.754,248.039A1140.338,1140.338,0,0,1,131.5,132.062c-11.685,7.891-23.8,18.487-30.087,30.792a3.467,3.467,0,0,0,.94,4.283c3.514,2.8,8.446,6.217,10.629,8.188-3.789,3.137-8.641,6.9-9.382,9.267-.439,1.407,14.112,41.944,16.63,49.5l5.37,13.437Z"/><path class="a" d="M181.416,247.425c4.889-32.889,9.418-65.558,4.741-88.3-.813-3.953-1.8-7.54-2.667-11.481a67.955,67.955,0,0,1-1.641-14.952.835.835,0,0,1,1.306-.717c11.937,8.341,18.441,16.325,26.715,25.795a6.2,6.2,0,0,1,1.718,2.909,3.635,3.635,0,0,1-.721,3.16c-2.636,2.545-5.6,5.36-9.323,8.749q3.864,1.875,7.634,3.938a7.116,7.116,0,0,1,3.009,2.486c.888,1.59.463,3.56.014,5.325q-3.278,12.9-6.556,25.79l-11.3,37.1Z"/><path class="c" d="M128.946,130.909a114.231,114.231,0,0,0-19.916,17.053,70,70,0,0,0-7.7,10.144c-1.093,1.777-2.484,3.765-2.664,5.892a5.965,5.965,0,0,0,2.436,5.189c3.358,2.64,6.989,4.992,10.182,7.835v-3.395c-2.946,2.436-6.2,4.766-8.564,7.8a5.1,5.1,0,0,0-1.327,4.6,89.541,89.541,0,0,0,2.7,8.726c3.219,9.694,6.627,19.327,10,28.967,1.284,3.665,2.592,7.324,3.822,11.008.973,2.916,5.61,1.666,4.628-1.276-2.57-7.7-5.345-15.332-8.014-23-2.819-8.095-5.842-16.186-8.175-24.44-.132-.466-.245-.936-.364-1.405-.146-.578,0,.1,0,.159,0-.158-.421,1.011,0,.323a17.294,17.294,0,0,1,3.444-3.682c1.7-1.514,3.487-2.938,5.244-4.39a2.412,2.412,0,0,0,0-3.395c-2.546-2.267-5.39-4.21-8.113-6.255-.694-.521-1.387-1.043-2.069-1.579-.432-.339-1.012-.676-1.061-1.282a3,3,0,0,1,.614-1.517c.484-.9,1-1.775,1.534-2.64A76.6,76.6,0,0,1,120.9,143.113a124.617,124.617,0,0,1,10.465-8.06,2.461,2.461,0,0,0,.861-3.283,2.419,2.419,0,0,0-3.283-.861Z"/><path class="c" d="M183.731,248.063c2.486-16.736,4.983-33.513,6.176-50.4,1.013-14.34,1.051-28.814-2.26-42.877-1-4.263-2.158-8.5-2.788-12.845-.228-1.571-.358-3.156-.443-4.74a27.111,27.111,0,0,1-.131-4.779l-.328,1.211-1.052.627-1.211-.327a26.628,26.628,0,0,1,4.519,3.263q2.241,1.758,4.379,3.644c2.6,2.294,5.081,4.727,7.464,7.249,2.338,2.476,4.588,5.033,6.825,7.6,1.139,1.308,2.286,2.611,3.418,3.926.693.806,1.423,1.842.615,2.778a53.742,53.742,0,0,1-4,3.811q-2.514,2.367-5.069,4.691a2.415,2.415,0,0,0,.486,3.769q2.468,1.2,4.9,2.473a26.132,26.132,0,0,1,4.287,2.407c.927.745.866,1.83.659,2.912-.343,1.784-.876,3.546-1.323,5.307l-5.524,21.73c-.762,3,3.867,4.273,4.628,1.276q3.066-12.059,6.131-24.118c.916-3.6,2-7.739-1.239-10.544a23.649,23.649,0,0,0-4.563-2.781q-2.742-1.452-5.533-2.807l.486,3.77q3.36-3.061,6.656-6.191c2.043-1.944,4.272-3.639,4.16-6.743s-2.435-5.212-4.351-7.415c-1.79-2.059-3.579-4.121-5.405-6.149a122.86,122.86,0,0,0-11.719-11.562c-2.395-2.032-4.885-3.958-7.445-5.779-1.265-.9-2.733-1.425-4.171-.518-1.494.942-1.525,2.52-1.475,4.1a80.491,80.491,0,0,0,2,15.662c1.3,5.62,2.784,11.176,3.443,16.919,1.337,11.65.83,23.482-.145,35.139-1.262,15.084-3.465,30.073-5.689,45.039a2.48,2.48,0,0,0,1.676,2.953,2.419,2.419,0,0,0,2.953-1.677Z"/><path class="c" d="M129.09,133.2q-.255,45.052,3.13,90.041.921,12.41,2.134,24.795a2.466,2.466,0,0,0,2.4,2.4,2.417,2.417,0,0,0,2.4-2.4c-2.938-29.891-4.584-59.92-5.112-89.949q-.219-12.443-.152-24.887c.018-3.089-4.782-3.093-4.8,0Z"/><path class="c" d="M155.746,168.048c-.2,19.5-.02,39-.051,58.5q-.013,8.563-.1,17.127c-.031,3.09,4.769,3.092,4.8,0,.2-19.5.02-39,.051-58.5q.014-8.564.1-17.127c.031-3.09-4.769-3.092-4.8,0Z"/><path class="c" d="M150.991,151.4a93.217,93.217,0,0,0,4.841,17.286,2.433,2.433,0,0,0,2,1.719,2.362,2.362,0,0,0,2.391-1.146c1.364-3.09,2.545-6.259,3.6-9.465a65.9,65.9,0,0,0,2.464-9.108,2.47,2.47,0,0,0-1.676-2.953,2.421,2.421,0,0,0-2.953,1.677,64.929,64.929,0,0,1-2.377,8.843q-.771,2.352-1.637,4.673-.426,1.14-.88,2.27-.2.5-.407.993c.1-.229.043-.1-.023.053-.086.2-.172.4-.259.594l4.386.574a93.217,93.217,0,0,1-4.841-17.286,2.419,2.419,0,0,0-2.952-1.676,2.456,2.456,0,0,0-1.676,2.952Z"/><path class="c" d="M149.971,241.4q9.918-5.193,20.194-9.653a2.416,2.416,0,0,0,.861-3.284,2.461,2.461,0,0,0-3.283-.861q-10.271,4.458-20.194,9.653a2.4,2.4,0,0,0,2.422,4.145Z"/></svg>