<?xml version="1.0" encoding="utf-8"?>
<!-- Uploaded to: SVG Repo, www.svgrepo.com, Generator: SVG Repo Mixer Tools -->
<svg width="800px" height="800px" viewBox="-6.64 0 330.773 330.773" xmlns="http://www.w3.org/2000/svg"><defs><style>.a{fill:#ffffff;}.b{fill:#957f6e;}.c{fill:#211715;}.d{fill:#6dbf6b;}.e{fill:#211916;}.f{fill:#f4b3b3;}.g{fill:#79c6e0;}</style></defs><path class="a" d="M189.885,144.169c-.472-.2-5.728-2.194-6.039-2.3-4.663-1.643-4.507-4.644-5.124-7.98a72.672,72.672,0,0,1-.969-7.459c10.367-5.32,18.5-19.232,19.948-23.27.227-.707.69-2.041,1.1-3.623l.879-.143a11.039,11.039,0,0,0,5.121-2.358,16.658,16.658,0,0,0,4.265-5.691,26.234,26.234,0,0,0,2.563-13.924,8.746,8.746,0,0,0-.945-3.514,6.187,6.187,0,0,0-4.474-2.923,6.553,6.553,0,0,0-5.233,1.577s11.863-42.192-46.819-42.192c-48.889,0-41.163,42.9-41.163,42.9a6.556,6.556,0,0,0-5.258-1.492,6.189,6.189,0,0,0-4.427,2.994,8.758,8.758,0,0,0-.888,3.528,26.225,26.225,0,0,0,2.786,13.881,16.667,16.667,0,0,0,4.355,5.623,11.06,11.06,0,0,0,5.158,2.276l1.678.245a44.609,44.609,0,0,0,8.633,16.523,38.007,38.007,0,0,0,13.357,10.445,68.2,68.2,0,0,1-.814,6.931c-.554,3.345-.35,6.343-5,8.06-.3.113-2.463.84-3.361,1.157,0,0-6.205,28.118,28.644,28.118C191.935,171.553,189.885,144.169,189.885,144.169Z"/><path class="b" d="M121.441,134.819c6.145-.985,11.345-4,13.636-7.5l.8-1.3a40,40,0,0,1-10.841-9.178,44.608,44.608,0,0,1-8.634-16.526l-1.677-.242a11.06,11.06,0,0,1-5.158-2.276,13.594,13.594,0,0,1-1.8-1.74,21.859,21.859,0,0,0-2.152,7.321,35.791,35.791,0,0,0-.207,4.871q.012.5.044.994c.221,3.549,1.08,7.159,1.284,10.694.209,3.853-.764,7.654-4.43,8.932-.145.05-.17.521-.165.641a1.679,1.679,0,0,0,.3.821,5.69,5.69,0,0,0,1.9,1.637A26.141,26.141,0,0,0,121.441,134.819Z"/><path class="b" d="M207.661,43.571c-.174-.966-.35-1.859-.521-2.663-4.738-22.319-27.4-39.884-51-38.4-23.623-1.107-46,16.819-50.378,39.211-1.187,6.039-.956,16.354.2,21.158l2.332,8.837a6.509,6.509,0,0,1,4.694,1.549c9.281-6.548,25.02-17.92,33.16-25.035-.641,4.19-2.979,11.325.033,10.569,12.576-3.018,24.6-9,31.834-18.236,1.582,5.407,4.184,12.709,6.078,15.893,2.68,4.507,10.424,14.633,16.877,16.105a6.553,6.553,0,0,1,5.233-1.577,6.3,6.3,0,0,1,.819.172C210.248,63.529,209.045,51.265,207.661,43.571Z"/><path class="c" d="M108.259,62.432c-1.253-5.347-1.136-11.519-.6-17.082a40.55,40.55,0,0,1,5.4-16.206A49.419,49.419,0,0,1,140.231,7.11a44.507,44.507,0,0,1,8.558-1.94c3.108-.364,6.226-.285,9.346-.341a45.754,45.754,0,0,1,17.9,3.416A49.165,49.165,0,0,1,201.594,32.05a52.408,52.408,0,0,1,4.358,15.967c.811,5.978,1.266,12.378.026,18.327a23.785,23.785,0,0,1-1.233,4.1,2.416,2.416,0,0,0,1.677,2.952,2.459,2.459,0,0,0,2.952-1.676c2.468-6.078,2.375-13.17,1.826-19.6a68.445,68.445,0,0,0-3.5-17.9A53.269,53.269,0,0,0,181.938,5.7,52.112,52.112,0,0,0,163,.205a89.221,89.221,0,0,0-9.921-.133,49.63,49.63,0,0,0-9.84,1.228A54.347,54.347,0,0,0,111.36,22.892,47.819,47.819,0,0,0,103.589,40.4a60.49,60.49,0,0,0-.612,19.279,35.849,35.849,0,0,0,.654,4.031c.7,3.006,5.333,1.734,4.628-1.276Z"/><path class="c" d="M175.9,41.856c2.07,6.862,4.384,13.767,8.667,19.587a56.474,56.474,0,0,0,7.086,8.114c2.475,2.284,5.355,4.5,8.687,5.317,3,.734,4.28-3.894,1.276-4.629-2.567-.628-4.934-2.528-6.948-4.437a51.5,51.5,0,0,1-6.312-7.275c-3.867-5.367-5.932-11.669-7.827-17.953-.89-2.95-5.524-1.693-4.629,1.276Z"/><path class="c" d="M176.449,38.7a45.011,45.011,0,0,1-15.217,12.122,65.066,65.066,0,0,1-9.36,3.869q-2.536.832-5.127,1.494c-.1.026-1.2.262-1.2.3,0-.149.877.13.942.168-.14-.081.859.788.541.514-.155-.133.071.176.091.21-.106-.176.068-.187-.028-.042-.086.13-.01.023-.006-.19.046-2.691.931-5.458,1.379-8.277a2.422,2.422,0,0,0-4.011-2.335c-10.269,8.95-21.557,16.813-32.674,24.66a2.465,2.465,0,0,0-.861,3.284,2.42,2.42,0,0,0,3.283.861c11.449-8.082,23.071-16.194,33.646-25.411l-4.011-2.335c-.48,3.018-1.475,6.021-1.552,9.092a4.589,4.589,0,0,0,1.431,3.848c1.416,1.143,3.115.6,4.7.182A67.636,67.636,0,0,0,170.412,50.9a44.329,44.329,0,0,0,9.431-8.8,2.479,2.479,0,0,0,0-3.394,2.416,2.416,0,0,0-3.394,0Z"/><path class="c" d="M105.684,94.848a29.387,29.387,0,0,0-2.448,16.435c.35,3,1.009,5.99,1.111,9.018.06,1.763-.062,3.846-1.254,5.251-.686.809-1.769.9-2.486,1.617a3.624,3.624,0,0,0-.241,4.377c1.263,2.12,4,3.277,6.192,4.145a29.6,29.6,0,0,0,16.582,1.25c5.363-1.083,10.876-3.773,14.012-8.408,1.736-2.565-2.421-4.969-4.144-2.422-2.786,4.117-8.676,6.105-13.417,6.543a25.832,25.832,0,0,1-8.813-.636,20.068,20.068,0,0,1-3.706-1.3c-.52-.25-1.03-.523-1.523-.821a4.8,4.8,0,0,0-.7-.455l-.264-.248q-.425-.447-.211.884l-1.434,1.1c6.471-2.438,6.573-9.289,5.771-15.144-.864-6.3-1.814-12.818,1.116-18.767a2.461,2.461,0,0,0-.861-3.283,2.421,2.421,0,0,0-3.284.861Z"/><path class="c" d="M202.673,74.257a4.074,4.074,0,0,1,5.753.559,7.273,7.273,0,0,1,.893,3.939,23.012,23.012,0,0,1-.286,4.919c-.976,5.558-3.82,12.27-9.992,13.4a2.421,2.421,0,0,0-1.676,2.952,2.451,2.451,0,0,0,2.952,1.676c8.834-1.624,13.013-11.6,13.722-19.609.36-4.059.168-8.978-3.311-11.693a8.991,8.991,0,0,0-11.449.458,2.421,2.421,0,0,0,0,3.394,2.449,2.449,0,0,0,3.394,0Z"/><path class="c" d="M197.172,94.513a25.564,25.564,0,0,1-2.017,8.6c.176-.437.093-.215-.032.051-.084.181-.167.361-.253.541-.212.439-.435.874-.664,1.3-.538,1.013-1.114,2.006-1.716,2.982a52.608,52.608,0,0,1-11.415,13.414,21.652,21.652,0,0,1-8.486,4.4c-3,.721-1.731,5.351,1.276,4.629,6.588-1.581,12.087-6.327,16.416-11.34a56.879,56.879,0,0,0,9.085-13.724,29.367,29.367,0,0,0,2.606-10.857c.086-3.09-4.714-3.087-4.8,0Z"/><path class="c" d="M114.691,71.567a8.994,8.994,0,0,0-11.209-.512c-3.661,2.743-3.836,7.73-3.4,11.917.835,7.977,5.136,17.932,14,19.416a2.473,2.473,0,0,0,2.953-1.676,2.42,2.42,0,0,0-1.677-2.953c-6.2-1.037-9.163-7.655-10.232-13.216a22.819,22.819,0,0,1-.378-4.689,8.135,8.135,0,0,1,.724-4.029,4.039,4.039,0,0,1,5.825-.864,2.467,2.467,0,0,0,3.394,0,2.419,2.419,0,0,0,0-3.394Z"/><path class="c" d="M112.622,94.675c2.512,13.806,10.105,27.282,22.934,33.908a31.332,31.332,0,0,0,11.451,3.36,2.417,2.417,0,0,0,2.4-2.4,2.452,2.452,0,0,0-2.4-2.4c-13.017-1.261-23.235-12.911-27.375-24.608A58.991,58.991,0,0,1,117.25,93.4a2.422,2.422,0,0,0-2.952-1.677,2.453,2.453,0,0,0-1.676,2.953Z"/><path class="c" d="M175.352,126.426c.257,3.263.8,6.475,1.321,9.7a9.588,9.588,0,0,0,2.835,6,17.177,17.177,0,0,0,5.459,2.715c1.428.542,2.867,1.062,4.28,1.641a2.415,2.415,0,0,0,2.952-1.677,2.459,2.459,0,0,0-1.676-2.952c-1.3-.534-2.631-1.014-3.948-1.514a14.067,14.067,0,0,1-3.818-1.713c.377.291-.164-.177-.231-.246-.1-.105-.479-.655-.184-.19-.117-.184-.225-.374-.34-.559-.318-.512.048.25-.1-.185a16.567,16.567,0,0,1-.605-2.595c-.453-2.807-.925-5.589-1.149-8.427a2.46,2.46,0,0,0-2.4-2.4,2.42,2.42,0,0,0-2.4,2.4Z"/><path class="c" d="M150.07,109.416a17.771,17.771,0,0,0,8.581,1.929,14.009,14.009,0,0,0,8.672-2.635,2.406,2.406,0,0,0,0-3.394,2.473,2.473,0,0,0-3.394,0c.732-.58.21-.164.02-.04-.169.111-.343.213-.521.308-.035.018-.577.3-.585.282s.6-.224.1-.049c-.125.043-.249.09-.375.131a13.41,13.41,0,0,1-2.017.478c-.452.075.16,0-.138.016-.2.01-.4.039-.595.053-.478.035-.957.051-1.437.052-.429,0-.858-.01-1.286-.036-.2-.012-.393-.026-.59-.044-.055,0-.791-.1-.232-.017a14.2,14.2,0,0,1-1.891-.4c-.265-.077-.527-.162-.785-.257-.085-.031-.169-.067-.254-.1-.458-.158.524.246.115.05-.323-.155-.646-.306-.964-.471a2.4,2.4,0,1,0-2.422,4.144Z"/><path class="c" d="M157.178,89.283a34.617,34.617,0,0,1,.979,4.345l-.086-.638a2.472,2.472,0,0,1,.011.516l.086-.638a1.43,1.43,0,0,1-.063.266l.242-.573a1.081,1.081,0,0,1-.092.171l.375-.485a.907.907,0,0,1-.139.138l.486-.375a2.681,2.681,0,0,1-.426.22l.574-.242a2.516,2.516,0,0,1-.482.134l.638-.086a2.331,2.331,0,0,1-.6,0l.638.086c-.4-.06-.782-.127-1.182-.178a2.391,2.391,0,0,0-1.7.7,2.4,2.4,0,0,0,0,3.394l.486.376a2.384,2.384,0,0,0,1.211.327l.051.007-.638-.086a10.09,10.09,0,0,0,1.446.2,4.791,4.791,0,0,0,2.153-.562,3.086,3.086,0,0,0,1.633-2.08,5.336,5.336,0,0,0-.048-2.154c-.248-1.364-.569-2.715-.932-4.053a2.481,2.481,0,0,0-1.1-1.435,2.4,2.4,0,0,0-3.525,2.711Z"/><path class="c" d="M134.663,77.31c-.7,2.328-.188,7.665,4.215,8.084,5.813-.081,6.07-6.541,4.089-9.561C141.345,73.36,136.625,72.363,134.663,77.31Z"/><path class="c" d="M181.218,76.937c.733,2.317.31,7.661-4.085,8.151-5.814.011-6.175-6.444-4.242-9.495C174.473,73.094,179.176,72.023,181.218,76.937Z"/><path class="c" d="M129.855,145.749c3.333-1.172,7.157-2.1,8.794-5.6a16.542,16.542,0,0,0,1.153-4.736c.4-2.7.812-5.4.986-8.129a2.4,2.4,0,0,0-4.8,0,56.846,56.846,0,0,1-1.6,10.707c-.07.269.227-.413.006-.037-.086.145-.159.3-.248.442s-.413.479-.031.078c-.126.132-.238.274-.368.4s-.279.262-.429.383c.335-.27-.052.018-.19.1a10.871,10.871,0,0,1-.986.527c-.305.127-1.005.354-1.475.514-.7.238-1.4.474-2.091.719a2.459,2.459,0,0,0-1.676,2.952,2.422,2.422,0,0,0,2.952,1.676Z"/><path class="a" d="M264.978,232.672c-5.57.771-11.261-.553-16.414-2.136-11.012-3.382-19.409-6.29-30.434-9.675-1.046,12.487-2.2,23.01-3.286,38.017l-.131,1.814c-41.929.034-110.66.1-160.228.19l-1.217-41.625c4.315-9.545,7.012-17.853,11.7-27.217L74.49,171.2a35.537,35.537,0,0,1,4.263-7.614c3.123-3.9,7.695-6.234,12.164-8.367q14.241-6.8,29.01-12.356a125.725,125.725,0,0,1,15.571-12.3c-.071,10.1.011,20.489.242,31A71.888,71.888,0,0,0,154,163.752c15.57,0,24.29-4.22,24.29-4.22s1.892-.583,4-1.237c-.044-.224-.088-.446-.134-.668-.813-3.953-1.8-7.54-2.667-11.481a67.955,67.955,0,0,1-1.641-14.952.835.835,0,0,1,1.306-.718,102.109,102.109,0,0,1,9.47,7.462l3.53.221c8.814,6.127,18.855,6.028,28.926,9.743a15.137,15.137,0,0,1,5.512,3.494,16.777,16.777,0,0,1,3.194,4.009,212.748,212.748,0,0,1,10.592,24.026s3.723,4.145,6.513,7.249c-.066-12.742-.66-24.568-1.443-32.186,7.586-.559,23.591-1.407,30.6-1.47,1.256,8.937,3.249,19.514,4.62,32.449.461,4.345,1.327,11.074,1.576,15.437.329,5.78.315,10.76-1.019,16.394s-4.146,10.341-9.238,13.1A20.519,20.519,0,0,1,264.978,232.672Z"/><path class="a" d="M263.157,120.99c-1.867-.584-4.029-1.973-3.018-5.891.874-3.389,4.577-2.968,5.248-2.767,3.159.947,6.573,1.608,9.733,2.554a8.784,8.784,0,0,1,4.667,2.667,5.43,5.43,0,0,1-2.722,8.1,22.785,22.785,0,0,1,8.286,4.385,5.828,5.828,0,0,1,1.334,2.056,3.942,3.942,0,0,1,.065,2.352,14.887,14.887,0,0,1-1.576,3.64c-3.043,5.33-10.637,7.231-12.622,13.038,0,0-.268.784-.678,2-7.094.22-17.567.775-24.222,1.223l-.829-9.409c-2.028-1.182-3-3.529-3.959-5.673a69.54,69.54,0,0,0-4.3-8.161,24.832,24.832,0,0,1-3.233-6.322c-.619-2.294-.335-5,1.377-6.65s5.013-1.552,6.128.546l18.453,3.755Z"/><path class="c" d="M274.866,151.758c1.01-2.784,3.852-4.546,6.124-6.229,3-2.224,5.648-4.572,7.191-8.06.884-2,1.553-4.173.7-6.3a10.305,10.305,0,0,0-4.267-4.689,26.862,26.862,0,0,0-5.7-2.722,9.847,9.847,0,0,0-5.339-.858,6.477,6.477,0,0,0-4.929,4.853c-.487,2.82,1.509,5.177,3.427,6.974,2.253,2.11,5.655-1.277,3.394-3.394-.621-.582-1.884-1.532-2.05-2.441-.1-.537.305-.884.8-1.162a1.444,1.444,0,0,1,1.29-.053,27.044,27.044,0,0,1,2.7.921,18.037,18.037,0,0,1,5.123,2.864c1.43,1.193,1.279,2.261.577,3.875-1.369,3.149-3.98,5.037-6.654,7.017-2.989,2.212-5.714,4.538-7.017,8.132a2.422,2.422,0,0,0,1.676,2.952,2.449,2.449,0,0,0,2.952-1.676Z"/><path class="c" d="M244.907,117.459a6.413,6.413,0,0,0-9.191-1.6c-3.187,2.335-3.683,6.834-2.453,10.355,1.363,3.9,4.067,7.262,5.938,10.926,1.787,3.5,2.9,7.657,6.411,9.866,2.621,1.651,5.033-2.5,2.422-4.144-2.14-1.348-2.933-4.542-3.971-6.7-1.406-2.922-3.1-5.646-4.755-8.426-1.18-1.981-2.552-4.566-1.583-6.916a2.1,2.1,0,0,1,1.721-1.438,1.3,1.3,0,0,1,1.316.5c1.583,2.649,5.735.238,4.145-2.423Z"/><path class="c" d="M249.3,189.034a343.593,343.593,0,0,0-1.449-34.54l-2.4,2.4c10.17-.745,20.4-1.368,30.6-1.47l-2.314-1.762c1.153,8.165,2.6,16.286,3.665,24.465,1.1,8.471,2.287,17.069,2.576,25.613.26,7.685-.266,17.154-6.412,22.665-6.561,5.883-16.111,4.3-23.781,1.994-10.361-3.113-20.593-6.646-30.934-9.827-2.959-.91-4.224,3.722-1.276,4.629,9.6,2.951,19.11,6.166,28.7,9.14,8.973,2.782,18.983,4.9,27.577-.239,7.925-4.741,10.439-14.038,10.9-22.718.472-8.932-.974-17.966-2-26.818-1.171-10.1-2.961-20.112-4.383-30.18a2.4,2.4,0,0,0-2.314-1.762c-10.2.1-20.431.725-30.6,1.47-1.192.087-2.539,1.033-2.4,2.4a343.593,343.593,0,0,1,1.449,34.54c0,3.089,4.8,3.094,4.8,0Z"/><path class="c" d="M85.57,193.186c.951,10.265,2.879,20.475,3.016,30.8.041,3.086,4.841,3.095,4.8,0-.137-10.326-2.065-20.536-3.016-30.8a2.466,2.466,0,0,0-2.4-2.4,2.416,2.416,0,0,0-2.4,2.4Z"/><path class="c" d="M135.1,163.876a76.464,76.464,0,0,0,22.61,2.195,67.344,67.344,0,0,0,18.436-3.15A29.252,29.252,0,0,0,179.5,161.6a2.422,2.422,0,0,0,.861-3.284,2.45,2.45,0,0,0-3.283-.861c-.313.15-.723.275-.046.029-.559.2-1.107.438-1.669.635a51.716,51.716,0,0,1-6.218,1.721,75.109,75.109,0,0,1-22.568,1.175,63.058,63.058,0,0,1-10.2-1.772c-2.991-.782-4.267,3.847-1.276,4.628Z"/><path class="c" d="M216.4,212.228c-1.128,15.566-2.833,31.083-3.96,46.65a2.421,2.421,0,0,0,2.4,2.4,2.446,2.446,0,0,0,2.4-2.4c1.127-15.567,2.832-31.084,3.96-46.65a2.4,2.4,0,0,0-4.8,0Z"/><path class="a" d="M249.849,158.076a10.632,10.632,0,0,1-.735-4c-.014-2.576-.031-5.635-.049-8.974-.07-12.2-.08-41.217-.107-46.295-.013-2.537,3.055-3.63,7.175-3.651s7.769.962,7.783,3.5l.23,43.426c.132,7.48.218,12.956.222,13.68.025,4.753-3.064,6.852-7.748,6.877A7.13,7.13,0,0,1,249.849,158.076Z"/><path class="d" d="M249.618,157.444a11.1,11.1,0,0,1-.5-3.37c-.014-2.576-.061-11.309-.079-14.648l0-.486,0,.47c.012,2.265,3.142,3.647,7.886,3.622,4.119-.022,6.643-1.089,7.229-2.853.122,7.244.215,14.884.219,15.581.025,4.753-3.064,6.852-7.748,6.877A7.174,7.174,0,0,1,249.618,157.444Z"/><path class="e" d="M261.516,98.654c.1,18.9.281,37.8.447,56.692.015,1.649-.206,2.93-1.3,3.845a5.094,5.094,0,0,1-1.841.81,9.981,9.981,0,0,1-2.9.21,4.751,4.751,0,0,1-3.823-2.958c-.979-2.3-.591-5.151-.6-7.595q-.074-13.477-.089-26.956c-.013-7.965,0-15.931-.043-23.9-.015-3.088-4.815-3.094-4.8,0,.087,16.806.037,33.612.129,50.418.017,2.992-.309,6.261.709,9.131a9.849,9.849,0,0,0,4.755,5.626c4.266,2.133,10.609,1.135,13.286-3.045a10.4,10.4,0,0,0,1.323-5.848c-.027-2.1-.064-4.2-.1-6.3-.121-7.255-.157-14.509-.195-21.764l-.15-28.372c-.017-3.088-4.817-3.094-4.8,0Z"/><path class="e" d="M256.133,92.754c-3.378.036-7.884.655-9.258,4.284a5.342,5.342,0,0,0,.372,4.442,5.946,5.946,0,0,0,3.573,2.546,18.49,18.49,0,0,0,5.137.55,25.752,25.752,0,0,0,5.41-.448,6.794,6.794,0,0,0,3.615-1.871,5.283,5.283,0,0,0,1.229-4.544c-.824-4.346-6.533-4.96-10.078-4.959a2.4,2.4,0,1,0,0,4.8c.736,0,1.471.023,2.2.093.155.015.31.031.465.05-.452-.057.033.011.146.03.35.062.7.136,1.043.228.287.077.563.191.848.269-.515-.142.076.038.248.134a2.747,2.747,0,0,0,.356.219c.268.1-.366-.383-.052-.033.024.026.214.212.21.214-.186.081-.159-.573-.041-.014.021.1.276.51-.073-.181a1.163,1.163,0,0,1,.072.28c-.126-.756-.071-.029-.056.149.025.287.18-.6.023-.2a1.255,1.255,0,0,0-.061.233c-.042.349.04-.232.117-.247-.007,0-.158.282-.165.3-.144.323.109-.231.17-.214a2.735,2.735,0,0,0-.2.208c-.345.328.488-.239-.054.022a2.414,2.414,0,0,0-.23.126c-.361.232.208-.1.195-.072-.051.11-.694.231-.8.258-.248.065-.5.118-.752.163-.121.022-.243.038-.363.06.525-.1.181-.022.059-.01-.738.074-1.475.122-2.217.143a29.064,29.064,0,0,1-4.193-.138c.591.07-.125-.031-.282-.064a7.985,7.985,0,0,1-.805-.207,2.989,2.989,0,0,0-.289-.1c.141-.1.455.244.174.072-.083-.051-.578-.25-.571-.337,0,0,.472.415.158.1s.153.088.1.171c0,.007-.234-.407-.237-.407.262,0,.162.557.115.234a1.9,1.9,0,0,0-.071-.307c-.092-.271-.015.529.039.241a1.69,1.69,0,0,0,0-.438c-.048-.338-.061.626,0,.134.017-.151.223-.645-.04.051a1.093,1.093,0,0,1,.142-.24c-.192.237-.262.32-.014.045a1.08,1.08,0,0,1,.219-.2q-.4.3-.179.144c.065-.045.132-.088.2-.129.093-.057.19-.111.287-.161.144-.075.595-.2.064-.042.644-.186,1.259-.374,1.922-.5s-.295.009.131-.018c.232-.015.463-.046.694-.062.448-.031.9-.044,1.344-.048a2.4,2.4,0,1,0,0-4.8Z"/><path class="e" d="M246.634,139.41c.157,4.986,6.256,6.019,10.153,6.022,3.784,0,9.6-.681,9.7-5.615a2.421,2.421,0,0,0-2.4-2.4,2.446,2.446,0,0,0-2.4,2.4c-.011.55-.037-.121.044-.159l-.089.332c-.119-.144.314-.553.049-.164-.222.327.435-.377.1-.116-.05.039-.261.213-.265.252.012-.113.515-.323.116-.109-.123.066-.244.138-.367.2-.443.242.084-.012.085-.029a4.224,4.224,0,0,1-.988.3c-.187.044-.376.082-.565.116-.068.013-.734.1-.187.038a25.526,25.526,0,0,1-2.832.152c-.472,0-.944-.013-1.414-.045-.242-.016-.482-.038-.723-.061-.751-.071.445.09-.27-.036-.414-.073-.826-.153-1.233-.264q-.234-.063-.465-.138c-.069-.022-.66-.217-.313-.1s-.112-.054-.183-.09c-.144-.073-.285-.15-.422-.235-.378-.234-.222-.011,0,.031-.089-.017-.236-.23-.306-.283-.315-.237.214.416.047.078a1.383,1.383,0,0,0-.184-.328c.032.015.292.585.1.167-.221-.479.029.5.015.081a2.4,2.4,0,1,0-4.8,0Z"/><path class="a" d="M274.713,114.59a7.243,7.243,0,0,0-2.04-7.817c-3.253-3.223-6.552-7.147-11.127-6.961a4.228,4.228,0,0,0-3.111,1.333,5.143,5.143,0,0,0,.278,5.556c1.117,1.591,3.148,3.444,4.555,5.074l.317.461a3.712,3.712,0,0,0-3.446,2.863c-1.011,3.918,1.151,5.307,3.018,5.891,2.266.71,2.826.816,4.822,1.43Z"/><path class="c" d="M277.027,115.228a9.332,9.332,0,0,0-1.322-8.574,23.851,23.851,0,0,0-2.3-2.543c-1.053-1.066-2.1-2.139-3.249-3.107-2.42-2.043-5.333-3.746-8.614-3.592a6.892,6.892,0,0,0-4.73,1.931,6.45,6.45,0,0,0-1.44,4.8c.365,4.031,3.713,6.485,6.2,9.327a2.422,2.422,0,0,0,3.394,0,2.447,2.447,0,0,0,0-3.394c-.887-1.015-1.843-1.966-2.763-2.951q-.627-.67-1.217-1.372s-.247-.318-.111-.136c.15.2-.129-.189-.155-.228q-.1-.148-.189-.3c-.028-.05-.27-.58-.185-.362s-.043-.161-.044-.164c-.036-.154-.08-.311-.12-.465-.021-.082-.044-.457-.018-.071-.008-.119-.014-.237-.015-.356,0-.141.1-.829.006-.412.033-.151.074-.3.113-.447.044-.169.128-.281.013-.062a1.652,1.652,0,0,1,.227-.392c.018-.009-.339.421-.141.218s-.363.122-.062.048a1.272,1.272,0,0,0,.264-.156c.36-.222.164-.077.054-.037.158-.058.32-.1.481-.146-.023.006.4-.085.208-.056-.094.015.432-.021.479-.022a7.487,7.487,0,0,1,.834.039c.289.03-.013,0-.058-.005.152.03.3.059.454.095.262.063.52.14.774.228.109.038.218.078.325.119-.373-.144.1.052.168.086a12.029,12.029,0,0,1,1.423.83c.232.156.461.318.684.489-.251-.192.373.312.465.391a44.53,44.53,0,0,1,4.652,4.562c.062.071.118.153.186.219.2.2-.334-.487-.041-.052.128.19.261.375.38.571s.236.431.355.648c.021.039.15.335.037.068-.131-.31.071.212.091.274.087.267.148.539.21.813.1.457.01.119,0,.018.008.152.02.3.023.458s-.009.316-.011.474c0,.4.025-.013-.022.233a8.777,8.777,0,0,1-.326,1.188,2.4,2.4,0,0,0,4.629,1.276Z"/><path class="c" d="M279.146,127.329a7.955,7.955,0,0,0,3.542-9.318c-1.4-4.207-6.235-5.325-10.039-6.282-2.217-.558-4.429-1.2-6.653-1.719a8.027,8.027,0,0,0-3.537-.015c-3.932.863-5.931,5.468-4.625,9.15,1.413,3.986,5.98,4.51,9.507,5.589,2.96.905,4.226-3.726,1.276-4.629-1.284-.392-2.579-.745-3.864-1.134-.347-.105-.695-.206-1.039-.321-.108-.036-.214-.078-.323-.113-.315-.1.384.2.089.038-.184-.1-.369-.2-.552-.3a2.98,2.98,0,0,1-.3-.2c.435.323.082.048,0-.046-.37-.431.1.234-.194-.275-.177-.3.1.363-.008.015-.032-.1-.058-.209-.094-.31-.134-.375-.049-.192-.031-.049a4.127,4.127,0,0,1-.021-.51,3.641,3.641,0,0,1,.133-1c.03-.125.321-.835.149-.519a3.61,3.61,0,0,1,.231-.381c-.314.44.026,0,.027.007-.007-.059.45-.322-.031,0a2.131,2.131,0,0,0,.324-.2c.026-.03.346-.167.05-.037-.318.139.155-.046.227-.064.247-.06.763-.111.21-.075.209-.014.416-.032.626-.032.16,0,.318.017.477.021.5.012-.533-.179-.082-.007a40.511,40.511,0,0,0,4.817,1.266c1.835.45,3.678.886,5.48,1.455a7.175,7.175,0,0,1,3.171,1.915c-.732-.685-.066-.179-.127-.132,0,0,.268.517.093.141-.128-.273.113.4.152.549.032.121.051.248.073.371-.06-.335-.02-.22-.017.049a7.356,7.356,0,0,1-.028.927c.057-.5-.079.253-.126.41a4.14,4.14,0,0,1-.144.414c.171-.4-.054.057-.1.13a3.251,3.251,0,0,1-1.145,1.075c-2.672,1.548-.258,5.7,2.423,4.145Z"/><path class="c" d="M190.943,140.231c7.508,5.136,16.486,6.163,25.037,8.555a27.887,27.887,0,0,1,6.139,2.22,15.725,15.725,0,0,1,4.608,4.069,30.878,30.878,0,0,1,3,5.509q1.427,2.91,2.758,5.865c2.021,4.472,3.9,9.009,5.583,13.62a2.463,2.463,0,0,0,2.952,1.676,2.42,2.42,0,0,0,1.677-2.952c-1.572-4.309-3.319-8.554-5.168-12.75a122.832,122.832,0,0,0-5.874-12.224,19.877,19.877,0,0,0-10.784-8.536c-4.389-1.532-8.957-2.418-13.465-3.511-4.982-1.207-9.772-2.768-14.037-5.685-2.556-1.749-4.96,2.409-2.423,4.144Z"/><path class="c" d="M133.09,131.7q-.255,45.052,3.13,90.041.921,12.41,2.134,24.8a2.466,2.466,0,0,0,2.4,2.4,2.417,2.417,0,0,0,2.4-2.4c-2.938-29.891-4.584-59.92-5.112-89.949q-.219-12.442-.152-24.887c.018-3.089-4.782-3.093-4.8,0Z"/><path class="c" d="M132.946,129.407A114.188,114.188,0,0,0,113.03,146.46a70,70,0,0,0-7.7,10.144c-1.093,1.777-2.484,3.765-2.664,5.892a5.965,5.965,0,0,0,2.436,5.189c3.358,2.64,6.989,4.992,10.182,7.835v-3.4c-2.946,2.436-6.2,4.766-8.564,7.8a5.1,5.1,0,0,0-1.327,4.6,89.522,89.522,0,0,0,2.7,8.725c3.219,9.695,6.627,19.328,10,28.968,1.284,3.665,2.592,7.324,3.822,11.008.973,2.915,5.61,1.666,4.628-1.276-2.57-7.7-5.345-15.332-8.014-23-2.819-8.095-5.842-16.186-8.175-24.44-.132-.466-.245-.936-.364-1.4-.146-.578,0,.1,0,.159,0-.158-.421,1.011,0,.323a17.294,17.294,0,0,1,3.444-3.682c1.7-1.514,3.487-2.938,5.244-4.39a2.412,2.412,0,0,0,0-3.4c-2.546-2.267-5.39-4.21-8.113-6.255-.694-.521-1.387-1.043-2.069-1.579-.432-.339-1.012-.676-1.061-1.282a3,3,0,0,1,.614-1.517c.484-.895,1-1.775,1.534-2.64A76.6,76.6,0,0,1,124.9,141.611a124.617,124.617,0,0,1,10.465-8.06,2.461,2.461,0,0,0,.861-3.283,2.419,2.419,0,0,0-3.283-.861Z"/><path class="c" d="M179.731,246.561c2.486-16.736,4.983-33.513,6.176-50.4,1.013-14.34,1.051-28.814-2.26-42.877-1-4.263-2.158-8.5-2.788-12.845-.228-1.571-.358-3.156-.443-4.74a27.111,27.111,0,0,1-.131-4.779l-.328,1.211-1.052.627-1.211-.327a26.628,26.628,0,0,1,4.519,3.263q2.241,1.758,4.379,3.644c2.6,2.294,5.081,4.727,7.464,7.249,2.338,2.476,4.588,5.033,6.825,7.6,1.139,1.309,2.286,2.612,3.418,3.927.693.806,1.423,1.842.615,2.778a53.742,53.742,0,0,1-4,3.811q-2.514,2.367-5.069,4.691a2.415,2.415,0,0,0,.486,3.769q2.468,1.2,4.9,2.473a26.2,26.2,0,0,1,4.287,2.406c.927.746.866,1.831.659,2.912-.343,1.785-.876,3.547-1.323,5.308l-5.524,21.73c-.762,2.995,3.867,4.273,4.628,1.276q3.066-12.058,6.131-24.118c.916-3.6,2-7.739-1.239-10.544a23.6,23.6,0,0,0-4.563-2.781q-2.742-1.452-5.533-2.807l.486,3.77q3.36-3.061,6.656-6.192c2.043-1.943,4.272-3.638,4.16-6.742s-2.435-5.212-4.351-7.415c-1.79-2.059-3.579-4.121-5.405-6.149a122.86,122.86,0,0,0-11.719-11.562c-2.395-2.032-4.885-3.958-7.445-5.779-1.265-.9-2.733-1.425-4.171-.518-1.494.942-1.525,2.52-1.475,4.1a80.491,80.491,0,0,0,2,15.662c1.3,5.62,2.784,11.176,3.443,16.919,1.337,11.65.83,23.482-.145,35.139-1.262,15.084-3.465,30.073-5.689,45.039a2.48,2.48,0,0,0,1.676,2.953,2.42,2.42,0,0,0,2.953-1.677Z"/><path class="a" d="M207.217,286.673a6.531,6.531,0,0,0-2.769-5.155,14.367,14.367,0,0,0-5.469-2.181c-5.345-1.212-10.808-1.18-16.335-1.18s-10.991-.032-16.335,1.18a14.36,14.36,0,0,0-5.469,2.181,6.332,6.332,0,0,0-2.5,5.155h0c0,3.2,0,6.629,0,9.356.609,2.982,4.04,4.653,7.078,5.454,5.6,1.477,11.519,1.645,17.223,1.645,5.814,0,11.626-.168,17.225-1.645,3.205-.845,6.848-2.658,7.157-5.959l.192-2.046v-6.805Z"/><path class="c" d="M2.318,263.783c7.874,0,15.748-.074,23.623-.075,3.088,0,3.093-4.8,0-4.8-7.875,0-15.749.073-23.623.075-3.088,0-3.093,4.8,0,4.8Z"/><path class="a" d="M124.465,328.373c-27.931.007-84.022-.277-112.652-.271.01-9.644.514-47.823.514-55.955,4.93-5.84,16.086-18.471,18.747-21.435h9.8c0,1.794-.028,4.522-.061,8.23h.061l78.049,0c1.025-3,2.086-5.96,3.289-9h11.281c0,2.275.717,37.49.746,42.844-1.652,7.468-5.276,22.465-9.333,35.581Z"/><path class="f" d="M81.574,288.925c0,3.873,0,7.42,0,10.409,0,6.752,4.27,9.978,8.653,9.978,5.435,0,9.03-2.416,9.03-7.929,0-.714-.048-5.409-.128-12.129"/><path class="c" d="M121.329,275.024q.006,6.618,0,13.236a2.4,2.4,0,1,0,4.8,0q0-6.618,0-13.236a2.4,2.4,0,0,0-4.8,0Z"/><path class="c" d="M20.387,272.483c-.017,2.97.012,5.94.033,8.91a2.437,2.437,0,0,0,2.4,2.4c24.026,0,48.05.172,72.075.245q9.833.03,19.665.031a2.434,2.434,0,0,0,2.4-2.4q-.021-4-.026-8a11.029,11.029,0,0,1,.829-3.621q.693-2.088,1.378-4.178c1.689-5.132,3.4-10.255,5.384-15.283l-2.314,1.762h11.281l-2.4-2.4c.011,7.952.281,15.91.429,23.86q.135,7.229.257,14.457c.022,1.39-.035,2.805.057,4.193.013.191-.077.512.035-.063-.058.3-.131.589-.2.883q-.236,1.043-.475,2.085-.562,2.436-1.149,4.867c-2.228,9.234-4.658,18.427-7.459,27.5l2.315-1.762q-21.208.007-42.416-.089-24.093-.077-48.185-.15-11.246-.027-22.491-.032l2.4,2.4c.019-15.584.3-31.169.45-46.752.029-3.067.063-6.135.064-9.2l-.7,1.7c6.124-7.248,12.411-14.371,18.747-21.435,2.057-2.294-1.326-5.7-3.394-3.395-3.95,4.4-7.847,8.856-11.738,13.312-2.146,2.458-4.288,4.92-6.4,7.407a4.113,4.113,0,0,0-1.311,2.522c-.017.348,0,.7,0,1.05q0,1.334-.015,2.668c-.086,12.018-.245,24.035-.368,36.053-.055,5.358-.121,10.717-.128,16.076a2.435,2.435,0,0,0,2.4,2.4q21.567,0,43.133.092,23.993.076,47.985.149,10.987.026,21.974.03a2.458,2.458,0,0,0,2.314-1.762c2.544-8.246,4.776-16.589,6.839-24.968q1.182-4.8,2.273-9.619a19.362,19.362,0,0,0,.27-4.669c-.147-9.881-.353-19.762-.536-29.643-.063-3.387-.168-6.776-.173-10.164a2.435,2.435,0,0,0-2.4-2.4H122.211a2.486,2.486,0,0,0-2.314,1.762c-2.038,5.169-3.791,10.439-5.527,15.715-.869,2.642-2.239,5.458-2.236,8.253s.012,5.594.026,8.391l2.4-2.4c-23.988.007-47.975-.164-71.963-.24q-9.888-.032-19.777-.036l2.4,2.4c-.021-2.97-.05-5.94-.033-8.91.018-3.089-4.782-3.093-4.8,0Z"/><path class="c" d="M99.3,261.539q8.9.036,17.807.061c3.089.008,3.094-4.792,0-4.8q-8.9-.022-17.807-.061c-3.089-.013-3.093,4.787,0,4.8Z"/><path class="c" d="M68.247,261.4q6.413.026,12.824.054a2.4,2.4,0,1,0,0-4.8q-6.411-.029-12.824-.054a2.4,2.4,0,0,0,0,4.8Z"/><path class="g" d="M50.736,288.925c0,3.873,0,7.42,0,10.409,0,6.752,4.27,9.978,8.654,9.978,5.434,0,9.029-2.416,9.029-7.929,0-.714-.047-5.409-.128-12.129"/><path class="c" d="M79.174,288.925q0,3.82,0,7.642a26.493,26.493,0,0,0,.491,6.765,11.113,11.113,0,0,0,7.133,7.837,13.1,13.1,0,0,0,10.581-1.236c3.045-1.97,4.282-5.277,4.277-8.8-.006-3.96-.08-7.922-.127-11.882-.037-3.086-4.837-3.094-4.8,0q.063,5.319.117,10.636a23.884,23.884,0,0,1-.042,2.608c.028-.278-.089.486-.124.629s-.08.314-.127.468c.015-.046-.242.679-.117.372s-.181.36-.164.329c-.07.129-.143.257-.221.381s-.157.245-.243.361c.287-.389-.14.135-.175.172-.1.108-.673.6-.319.331a6.366,6.366,0,0,1-.831.527c-.131.071-.265.137-.4.2-.382.182.523-.173-.169.065a11.257,11.257,0,0,1-1.153.335,6.857,6.857,0,0,1-1.691.222c-.39.019-.781.028-1.171.013-.182-.006-.364-.021-.546-.036.353.029.083.017-.118-.024a9.541,9.541,0,0,1-.953-.237c-.147-.046-.85-.341-.448-.152a8.252,8.252,0,0,1-.872-.474c-.158-.1-.313-.2-.463-.31.272.2-.02-.019-.13-.12a6.277,6.277,0,0,1-1.962-3.093,20.163,20.163,0,0,1-.433-5.892q0-3.821,0-7.642c0-3.089-4.8-3.094-4.8,0Z"/><path class="c" d="M48.336,288.925q0,3.82,0,7.642a26.538,26.538,0,0,0,.491,6.765,11.113,11.113,0,0,0,7.134,7.837,13.1,13.1,0,0,0,10.581-1.236c3.045-1.97,4.281-5.277,4.276-8.8-.005-3.96-.079-7.922-.127-11.882-.036-3.086-4.837-3.094-4.8,0q.065,5.319.117,10.636a23.884,23.884,0,0,1-.041,2.608c.028-.278-.09.486-.124.629s-.08.314-.127.468c.014-.046-.242.679-.118.372s-.18.36-.164.329c-.069.129-.143.257-.221.381s-.157.245-.242.361c.287-.389-.14.135-.175.172-.105.108-.673.6-.32.331a6.356,6.356,0,0,1-.83.527c-.132.071-.265.137-.4.2-.383.182.522-.173-.169.065a11.275,11.275,0,0,1-1.154.335,6.85,6.85,0,0,1-1.691.222c-.389.019-.781.028-1.17.013-.183-.006-.364-.021-.546-.036.352.029.082.017-.118-.024a9.407,9.407,0,0,1-.953-.237c-.147-.046-.85-.341-.448-.152a8.367,8.367,0,0,1-.873-.474c-.158-.1-.313-.2-.463-.31.272.2-.02-.019-.129-.12a6.27,6.27,0,0,1-1.962-3.093,20.129,20.129,0,0,1-.434-5.892q0-3.821,0-7.642c0-3.089-4.8-3.094-4.8,0Z"/><path class="c" d="M182.644,275.757a97.348,97.348,0,0,0-13.291.614c-3.907.536-8.552,1.355-11.309,4.459a7.511,7.511,0,0,0-.3,10.142c2.353,2.714,6.164,3.783,9.554,4.448a72.694,72.694,0,0,0,13.255,1.146,101.13,101.13,0,0,0,13.414-.523c3.787-.467,7.913-1.074,11.219-3.127,3.122-1.938,5.165-5.446,3.838-9.136-1.677-4.662-6.616-6.289-11.062-7.093a85.668,85.668,0,0,0-15.318-.93c-3.089,0-3.094,4.8,0,4.8a106.985,106.985,0,0,1,11.59.4c2.877.313,6.813.728,9.091,2.731,1.79,1.574,1.606,3.584-.279,4.9-2.411,1.685-5.685,2.173-8.527,2.579a79.5,79.5,0,0,1-10.907.605c-3.6.014-7.207-.024-10.792-.369-2.528-.244-14.924-1.629-11.676-6.767,1.747-2.763,6.394-3.241,9.309-3.611a96.519,96.519,0,0,1,12.191-.47C185.732,280.557,185.737,275.757,182.644,275.757Z"/><path class="c" d="M155.944,286.673q0,4.176,0,8.353a7.374,7.374,0,0,0,3.03,6.034c4.039,3.171,9.843,3.776,14.784,4.181a111.394,111.394,0,0,0,17.339.037c4.922-.371,10.818-.921,14.913-3.98a8.146,8.146,0,0,0,3.43-5.92,80.735,80.735,0,0,0,.178-8.7c0-3.089-4.8-3.094-4.8,0,0,2.4.134,4.851-.041,7.246-.1,1.316-.154,2.263-1.178,3.188a10.47,10.47,0,0,1-4.368,2.062,42.43,42.43,0,0,1-7.175,1.23,116.593,116.593,0,0,1-15.012.237c-4.361-.173-9.331-.419-13.356-2.282a7.03,7.03,0,0,1-2.293-1.538,2.455,2.455,0,0,1-.651-2q0-4.072,0-8.147c0-3.089-4.8-3.094-4.8,0Z"/><path class="c" d="M24.809,322.6c3.089,0,3.094-4.8,0-4.8s-3.093,4.8,0,4.8Z"/><path class="c" d="M11.813,322.6c3.089,0,3.094-4.8,0-4.8s-3.094,4.8,0,4.8Z"/><path class="c" d="M31.074,253.112h9.8l-2.4-2.4c0,2.743-.037,5.487-.061,8.23a2.433,2.433,0,0,0,2.4,2.4q4.887,0,9.774.01c3.088.006,3.093-4.794,0-4.8q-4.887-.009-9.774-.01l2.4,2.4c.024-2.743.059-5.487.061-8.23a2.434,2.434,0,0,0-2.4-2.4h-9.8c-3.089,0-3.094,4.8,0,4.8Z"/><path class="c" d="M20.476,288.763c.076,10.474.251,20.972-.112,31.443a2.43,2.43,0,0,0,2.4,2.4c24.112-.006,48.223.16,72.335.234q9.8.03,19.6.034a2.434,2.434,0,0,0,2.4-2.4c0-10.516-.063-21.033-.11-31.55a2.436,2.436,0,0,0-2.4-2.4c-23.94.008-47.879-.163-71.819-.24q-9.945-.032-19.889-.036a2.432,2.432,0,0,0-2.4,2.4v.115c.023,3.087,4.823,3.094,4.8,0v-.115l-2.4,2.4c23.982,0,47.964.173,71.946.246q9.881.03,19.762.03l-2.4-2.4c.047,10.517.109,21.034.11,31.55l2.4-2.4c-24.107,0-48.214-.167-72.321-.238q-9.8-.029-19.609-.03l2.4,2.4c.363-10.471.188-20.969.112-31.443C25.254,285.676,20.454,285.669,20.476,288.763Z"/><path class="c" d="M150.215,263.3q15.412-.033,30.824-.056,17.883-.029,35.765-.05,18.3-.023,36.6-.041,16.663-.018,33.325-.032l25.946-.02h2.508c3.089,0,3.094-4.8,0-4.8q-12.371.007-24.741.018-16.315.014-32.631.03-18.207.019-36.414.041-18.045.021-36.092.048-15.831.024-31.662.055l-3.425.008c-3.089.006-3.094,4.806,0,4.8Z"/><path class="c" d="M134.582,263.341q7.817-.024,15.633-.039a2.4,2.4,0,1,0,0-4.8q-7.817.016-15.633.039a2.4,2.4,0,1,0,0,4.8Z"/><path class="c" d="M118.019,141.026q-10.362,3.949-20.485,8.492c-5.917,2.656-12.262,5.16-17.349,9.271-5.358,4.329-7.683,11.012-10.457,17.087-3.132,6.859-6.4,13.664-9.471,20.547-3.185,7.138-5.851,14.5-9.061,21.622a2.474,2.474,0,0,0,.861,3.284,2.417,2.417,0,0,0,3.283-.861c2.8-6.222,5.191-12.613,7.869-18.887,2.828-6.624,6.016-13.1,9.008-19.657q2.264-4.958,4.527-9.914c1.287-2.806,2.612-5.683,4.768-7.94,4.2-4.4,10.4-6.734,15.826-9.22q10.824-4.96,21.957-9.195a2.469,2.469,0,0,0,1.677-2.953,2.419,2.419,0,0,0-2.953-1.676Z"/><path class="e" d="M279.089,91.114a43.576,43.576,0,0,1,5.7-1.379,2.419,2.419,0,0,0,1.434-1.1,2.451,2.451,0,0,0,.242-1.85,2.425,2.425,0,0,0-1.1-1.434,2.688,2.688,0,0,0-1.849-.242,43.9,43.9,0,0,0-5.7,1.379,2.539,2.539,0,0,0-1.434,1.1,2.4,2.4,0,0,0,.861,3.284,2.414,2.414,0,0,0,1.849.242Z"/><path class="e" d="M276.164,83.35c.692-.827,1.459-1.593,2.218-2.357.841-.846,1.695-1.679,2.542-2.518a2.473,2.473,0,0,0,.7-1.7,2.439,2.439,0,0,0-.7-1.7,2.412,2.412,0,0,0-1.7-.7,2.51,2.51,0,0,0-1.7.7c-.847.839-1.7,1.672-2.542,2.518-.76.764-1.527,1.53-2.218,2.357a2.573,2.573,0,0,0-.7,1.7,2.443,2.443,0,0,0,.7,1.7,2.412,2.412,0,0,0,1.7.7,2.352,2.352,0,0,0,1.7-.7Z"/><path class="e" d="M269.781,78.468c.013-1.887.292-3.763.321-5.649a2.4,2.4,0,1,0-4.8,0c-.029,1.886-.308,3.762-.321,5.649a2.462,2.462,0,0,0,.7,1.7,2.4,2.4,0,0,0,4.1-1.7Z"/><path class="a" d="M68.247,235.142v34.887c-1.061,1.709-3.307,2.3-5.331,2.571a19.558,19.558,0,0,1-6.31-.019,9.515,9.515,0,0,1-5.7-3.231C50.9,255.2,50.9,241.116,50.9,235.226"/><path class="a" d="M99.085,235.142v34.887c-1.061,1.709-3.307,2.3-5.33,2.571a19.565,19.565,0,0,1-6.311-.019,9.515,9.515,0,0,1-5.7-3.231c-.006-14.147-.013-28.234-.013-34.124"/><path class="c" d="M65.847,235.142v34.887l.327-1.211c-1.168,1.7-4.872,1.631-6.647,1.628-2.652,0-5.176-.7-6.92-2.793l.7,1.7q-.008-17.062-.013-34.124c0-3.089-4.8-3.094-4.8,0q0,8.511.005,17.023,0,5.814,0,11.629l0,2.978a12.413,12.413,0,0,0,.087,3.132c.463,1.684,2.7,3.112,4.176,3.815,3.4,1.618,7.124,1.632,10.782,1.111a11.748,11.748,0,0,0,4.4-1.385,7,7,0,0,0,1.791-1.513,3.989,3.989,0,0,0,.9-2.884v-33.99c0-3.088-4.8-3.093-4.8,0Z"/><path class="c" d="M96.685,235.142v34.887l.328-1.211c-1.169,1.7-4.872,1.631-6.648,1.628-2.652,0-5.175-.7-6.92-2.793l.7,1.7q-.007-17.062-.013-34.124c0-3.089-4.8-3.094-4.8,0q0,8.511.006,17.023,0,5.814.005,11.629v2.978a12.507,12.507,0,0,0,.087,3.132c.464,1.684,2.7,3.112,4.176,3.815,3.4,1.618,7.124,1.632,10.783,1.111a11.743,11.743,0,0,0,4.4-1.385,7,7,0,0,0,1.791-1.513,3.984,3.984,0,0,0,.9-2.884v-33.99c0-3.088-4.8-3.093-4.8,0Z"/><path class="a" d="M59.241,231.034c-4.778,0-8.344,1.248-8.344,4.192,0,3.041,2.891,3.954,8.394,3.954,5.968,0,8.956-.856,8.956-4.038C68.247,232.2,64.022,231.034,59.241,231.034Z"/><path class="a" d="M90.08,231.034c-4.779,0-8.345,1.248-8.345,4.192,0,3.041,2.891,3.954,8.395,3.954,5.968,0,8.955-.856,8.955-4.038C99.085,232.2,94.861,231.034,90.08,231.034Z"/><path class="c" d="M59.241,228.634c-3.54.019-8.5.547-10.2,4.221a5.847,5.847,0,0,0,.2,5.281,6.5,6.5,0,0,0,3.906,2.79,21.038,21.038,0,0,0,5.853.653,29.514,29.514,0,0,0,6.176-.477,7.5,7.5,0,0,0,4.031-2.056,5.735,5.735,0,0,0,1.34-4.893c-.883-4.849-7.383-5.5-11.3-5.519a2.4,2.4,0,1,0,0,4.8,15.966,15.966,0,0,1,4.574.507c.333.091.659.2.982.318-.415-.156.244.124.377.2s.275.168.411.256c.291.189-.349-.391.016.024.073.083.164.174.243.25-.253-.245-.185-.166.009.063.07.084.328.352-.049-.117-.007-.009.076.324.082.325-.166-.048.01-.532-.04-.037a1.633,1.633,0,0,0-.016.312c.029.287.185-.553.01-.13a1.391,1.391,0,0,0-.072.27c-.05.445.053-.26.095-.2.021.032-.18.314-.193.345-.174.392.117-.228.136-.172.011.033-.2.21-.236.24-.17.152-.361.168.1-.073-.087.045-.158.113-.247.156-.238.112-.611.265-.135.1-.307.109-.61.213-.927.294-.289.074-.58.134-.874.185-.14.025-.281.047-.422.067.449-.064.053-.009-.033,0-.857.079-1.712.133-2.572.152-.823.019-1.647.019-2.47-.007q-.6-.018-1.193-.059c-.166-.012-.331-.025-.5-.041-.03,0-.8-.095-.29-.023a10.461,10.461,0,0,1-1.775-.394c-.111-.036-.223-.087-.335-.118.489.135.245.126.112.043-.218-.135-.444-.253-.66-.394.5.324.24.181.107.05-.16-.157-.209-.366.062.119-.085-.152-.175-.329-.272-.473.456.676.144.238.1.178-.019-.025-.155-.565-.048-.113.085.365,0,.048,0-.066a4.107,4.107,0,0,0,0-.508c-.044-.323-.13.554.012.054.127-.447-.277.384-.005-.031.056-.085.121-.191.167-.278-.158.3-.188.221.047-.023.079-.082.174-.149.254-.23-.372.378-.045.05.1-.04.166-.1.951-.427.5-.269a12.884,12.884,0,0,1,4.852-.71,2.4,2.4,0,0,0,0-4.8Z"/><path class="c" d="M90.08,228.634c-3.54.019-8.5.547-10.206,4.221a5.847,5.847,0,0,0,.2,5.281,6.5,6.5,0,0,0,3.905,2.79,21.041,21.041,0,0,0,5.854.653,29.5,29.5,0,0,0,6.175-.477,7.5,7.5,0,0,0,4.031-2.056,5.732,5.732,0,0,0,1.341-4.893c-.883-4.849-7.384-5.5-11.3-5.519a2.4,2.4,0,1,0,0,4.8,15.974,15.974,0,0,1,4.574.507q.5.137.981.318c-.414-.156.244.124.377.2s.276.168.412.256c.29.189-.35-.391.015.024.074.083.165.174.243.25-.252-.245-.184-.166.009.063.071.084.328.352-.048-.117-.007-.009.075.324.081.325-.165-.048.01-.532-.04-.037a1.632,1.632,0,0,0-.015.312c.028.287.184-.553.009-.13a1.55,1.55,0,0,0-.072.27c-.05.445.054-.26.095-.2.021.032-.179.314-.193.345-.173.392.118-.228.136-.172.011.033-.2.21-.235.24-.171.152-.361.168.1-.073-.086.045-.158.113-.247.156-.237.112-.61.265-.134.1-.308.109-.611.213-.928.294-.288.074-.58.134-.873.185-.14.025-.281.047-.422.067.449-.064.053-.009-.034,0-.856.079-1.711.133-2.572.152-.823.019-1.647.019-2.47-.007q-.6-.018-1.193-.059c-.165-.012-.331-.025-.5-.041-.03,0-.8-.095-.29-.023a10.45,10.45,0,0,1-1.774-.394c-.112-.036-.223-.087-.335-.118.488.135.245.126.111.043-.217-.135-.444-.253-.66-.394.5.324.24.181.107.05-.159-.157-.209-.366.063.119-.085-.152-.175-.329-.272-.473.455.676.143.238.1.178-.019-.025-.154-.565-.048-.113.086.365,0,.048,0-.066a3.92,3.92,0,0,0,0-.508c-.044-.323-.129.554.012.054.127-.447-.276.384,0-.031.055-.085.121-.191.166-.278-.158.3-.188.221.047-.023.08-.082.175-.149.255-.23-.372.378-.046.05.1-.04.166-.1.951-.427.5-.269a12.884,12.884,0,0,1,4.852-.71,2.4,2.4,0,1,0,0-4.8Z"/></svg>